<svg xmlns="http://www.w3.org/2000/svg" width="87.511" height="86.66" viewBox="0 0 87.511 86.66">
  <g id="_01" data-name="01" transform="translate(-0.001 -2.492)">
    <path id="Path_63428" data-name="Path 63428" d="M87.256,31.63a7.565,7.565,0,0,0-6.617-3.262L84.21,24.8A1.282,1.282,0,0,0,82.4,22.987L78.83,26.552a7.542,7.542,0,0,0-3.266-6.6A1.282,1.282,0,1,0,74.029,22c2.214,1.654,2.786,3.967,1.712,6.888a9,9,0,0,0-7.414-1.632A15.182,15.182,0,0,0,62.3,30.31a1.272,1.272,0,0,0-.336.268,31.432,31.432,0,0,0-4.2,4.19,15.548,15.548,0,0,0-1.712-2.842c2.521-1.715,4.83-4.164,5.652-6.653a1.281,1.281,0,0,0-.365-1.359,13.6,13.6,0,0,0-6.977-2.8,8.8,8.8,0,0,0-.117-1.76,8.273,8.273,0,0,0-5.422-6.52,8.368,8.368,0,0,0-2.94-4.466,7.3,7.3,0,0,0-5.746-1.49q-.281.047-.558.116a12.321,12.321,0,0,0-5.4-3.634,16.284,16.284,0,0,0-10.4-.029,12.277,12.277,0,0,0-6.7,5.121,11.483,11.483,0,0,0-5.647,3.615,7.505,7.505,0,0,0-6.619,2.677A7.422,7.422,0,0,0,3,20.643a7.725,7.725,0,0,0-2,2.4A8.508,8.508,0,0,0,.125,28.5h0A8.442,8.442,0,0,0,2.472,33.1,7.737,7.737,0,0,0,5.66,35.056a7.844,7.844,0,0,0,7.629,4.937,6.418,6.418,0,0,0,5.037,2.531,6.049,6.049,0,0,0,1.011-.085,6.113,6.113,0,0,0,.714-.167,8.276,8.276,0,0,1,2.014,4.451H7.881a5.288,5.288,0,1,0,0,10.575H8.73c.483,9.31,6.206,17.82,15.559,23.08v3.367a5.412,5.412,0,0,0,5.4,5.406h29.22a5.414,5.414,0,0,0,5.41-5.406V80.379C73.677,75.119,79.4,66.609,79.883,57.3l.848,0a5.288,5.288,0,1,0,0-10.575H75.309q.66-.692,1.268-1.43c4.094-5,4.677-9.849,1.729-13.842,2.924-1.069,5.241-.5,6.9,1.716a1.282,1.282,0,0,0,2.052-1.538Zm-28.33-6.339a14.089,14.089,0,0,1-5.36,5.176,1.277,1.277,0,0,0-.126.071,10.822,10.822,0,0,1-2.42,1.024A5.181,5.181,0,0,1,47,31.054a4.956,4.956,0,0,1-1.152-.912l4.663-1.176a1.282,1.282,0,1,0-.627-2.486l-4.723,1.192a4.931,4.931,0,0,1,.554-1.421,5.173,5.173,0,0,1,3.225-2.445,11.108,11.108,0,0,1,2.807-.321A14.119,14.119,0,0,1,58.926,25.291ZM15,37.962a1.282,1.282,0,0,0-1.339-.6,5.258,5.258,0,0,1-5.812-3.779,1.282,1.282,0,0,0-.965-.861,5.1,5.1,0,0,1-2.594-1.432,5.9,5.9,0,0,1-1.633-3.221v-.005a5.935,5.935,0,0,1,.6-3.809,5.046,5.046,0,0,1,1.858-1.968,1.282,1.282,0,0,0,.549-1.552,4.6,4.6,0,0,1,1.1-4.333A5.035,5.035,0,0,1,11.713,14.7a1.282,1.282,0,0,0,1.272-.48,9.005,9.005,0,0,1,5.221-3.409,1.281,1.281,0,0,0,.853-.653,9.559,9.559,0,0,1,5.54-4.4,13.672,13.672,0,0,1,8.73.019,9.539,9.539,0,0,1,4.738,3.447,1.282,1.282,0,0,0,1.534.452,4.575,4.575,0,0,1,.967-.272,4.769,4.769,0,0,1,3.748.988,5.872,5.872,0,0,1,2.162,3.689,1.282,1.282,0,0,0,1.007,1.042,5.61,5.61,0,0,1,4.235,4.655,6.231,6.231,0,0,1,.086,1.147,13.716,13.716,0,0,0-3.529.4,7.785,7.785,0,0,0-5.224,4.53,15.281,15.281,0,0,0-7.534,2.4,1.282,1.282,0,1,0,1.381,2.16,12.741,12.741,0,0,1,5.608-1.949,4.668,4.668,0,0,0,.151,1.175,6.392,6.392,0,0,0,3.056,3.633A7.728,7.728,0,0,0,49.6,34.315a8.043,8.043,0,0,0,2.081-.276,12.2,12.2,0,0,0,2.137-.813A12.9,12.9,0,0,1,55.946,37.1a47.2,47.2,0,0,0-5.377,9.62H32.218a12.816,12.816,0,0,1,.975-12.715,1.282,1.282,0,0,0-2.115-1.449,15.239,15.239,0,0,0-2.256,5.11,9.426,9.426,0,0,1-5.246-.989,1.282,1.282,0,0,0-1.782.7,3.783,3.783,0,0,1-2.886,2.526A3.869,3.869,0,0,1,15,37.962Zm7.339,3.055a6.466,6.466,0,0,0,1.276-1.52,11.9,11.9,0,0,0,4.829.775,15.35,15.35,0,0,0,.988,6.453H24.664a11.088,11.088,0,0,0-2.329-5.707ZM61.76,83.746a2.847,2.847,0,0,1-2.846,2.842H29.694a2.845,2.845,0,0,1-2.841-2.842V80.908H61.76Zm21.7-31.737a2.728,2.728,0,0,1-2.723,2.726H47.484a1.282,1.282,0,1,0,0,2.564l29.833-.006c-.492,8.49-5.867,16.27-14.609,21.051h-36.8C17.166,73.564,11.791,65.787,11.3,57.3H41.579a1.282,1.282,0,1,0,0-2.564H7.881a2.724,2.724,0,1,1,0-5.448h72.85A2.726,2.726,0,0,1,83.456,52.009Zm-8.171-9.233-1.895-1.893A1.282,1.282,0,0,0,71.579,42.7l2.061,2.059q-.916.984-2.02,1.967H53.353a44.22,44.22,0,0,1,2.062-4.078L57.523,44.2a1.282,1.282,0,1,0,1.522-2.063l-2.292-1.691q.74-1.142,1.551-2.237a1.285,1.285,0,0,0,.163-.218,32.4,32.4,0,0,1,4.469-4.9l2.713,2.164a1.282,1.282,0,1,0,1.6-2l-2.219-1.77a11.345,11.345,0,0,1,3.832-1.716A6.668,6.668,0,0,1,75.3,31.88l0,0,0,0,.007.008C78.353,34.938,78.342,38.6,75.286,42.776Z" transform="translate(0)" fill="#3c435c"/>
  </g>
</svg>
