<svg id="_02" data-name="02" xmlns="http://www.w3.org/2000/svg" width="83.989" height="83.99" viewBox="0 0 83.989 83.99">
  <path id="Path_63429" data-name="Path 63429" d="M67.758,0H21.564a10.461,10.461,0,0,0-8.747,4.451,1.4,1.4,0,1,0,2.339,1.54A7.643,7.643,0,0,1,21.564,2.8H60.375a11.165,11.165,0,0,0-3.816,8.4V71.391a1.4,1.4,0,0,1-1.4,1.4h-11.2a1.4,1.4,0,1,0,0,2.8h11.2a4.2,4.2,0,0,0,4.2-4.2V12.6h18.2a1.4,1.4,0,0,0,1.4-1.4A11.211,11.211,0,0,0,67.758,0ZM59.475,9.8a8.4,8.4,0,0,1,16.565,0Z" transform="translate(5.032 0.001)" fill="#3c435c"/>
  <path id="Path_63430" data-name="Path 63430" d="M2.359,30.628a9.8,9.8,0,0,0-2.24,7.9l6.46,40.7a4.688,4.688,0,0,0,9.26,0l.049-.312a12.343,12.343,0,0,0,8.634,4.265A8.279,8.279,0,0,0,28,82.428a8.41,8.41,0,0,0,1.376.486c6.285,1.629,13.438-4.379,15.937-13.385,1.5-5.382,1.068-10.885-1.146-14.72A9.5,9.5,0,0,0,39.1,50.416q1.7-1.2,3.284-2.557a2.266,2.266,0,0,0-1.019-3.949c-2.872-.584-6.8-1.152-9.2-.56a9.641,9.641,0,0,0-4.929,2.8,10.762,10.762,0,0,0-1.321-1.52,1.4,1.4,0,1,0-1.926,2.034A9.341,9.341,0,0,1,26.659,52.3a4.531,4.531,0,0,1-1.211-.547,10.918,10.918,0,0,0-4.976-1.8l1.81-11.442a9.731,9.731,0,0,0-4.225-9.643l3.8-6.081a2.75,2.75,0,0,0-.052-3.07,2.8,2.8,0,0,0-2.863-1.166l-1.46.3,2.632-7.895a2.8,2.8,0,0,0-3.341-3.6l-1.807.455L13.89,4.042A2.8,2.8,0,0,0,8.51,4.033L7.43,7.813l-1.82-.465a2.8,2.8,0,0,0-3.327,3.614l2.627,7.887-1.461-.3A2.8,2.8,0,0,0,.592,19.721a2.748,2.748,0,0,0-.057,3.061l3.8,6.089a9.748,9.748,0,0,0-1.981,1.757ZM28.807,49.205c-.2-.8,1.309-2.459,4.031-3.136a7.868,7.868,0,0,1,1.82-.172,29.984,29.984,0,0,1,5.059.545,18.811,18.811,0,0,1-5.879,3.649,7.51,7.51,0,0,1-3.689.059c-.743-.211-1.243-.56-1.337-.943Zm-1.991,6v1.725a1.4,1.4,0,1,0,2.8,0v-1.82a7.488,7.488,0,0,0,2.45-1,7.128,7.128,0,0,1,5.665-1.2,6.611,6.611,0,0,1,4.012,3.294c1.848,3.2,2.174,7.9.873,12.57-2.1,7.545-7.731,12.667-12.544,11.422a5.637,5.637,0,0,1-1.383-.56,1.4,1.4,0,0,0-1.376,0,5.668,5.668,0,0,1-1.389.56c-3.369.872-7.131-1.382-9.8-5.393l-.007-.011a21.041,21.041,0,0,1-2.725-6.019c-1.3-4.673-.98-9.372.873-12.57A6.61,6.61,0,0,1,18.28,52.91a5.782,5.782,0,0,1,1.442-.181,7.849,7.849,0,0,1,4.222,1.38,7.479,7.479,0,0,0,2.872,1.1ZM19.522,38.088,17.6,50.2h-.031a9.333,9.333,0,0,0-5.739,4.6c-2.214,3.835-2.644,9.338-1.146,14.72a23.489,23.489,0,0,0,2.835,6.382L13.067,78.8a1.888,1.888,0,0,1-3.729,0L2.885,38.091a7.017,7.017,0,0,1,6.946-8.1h2.744a7.016,7.016,0,0,1,6.947,8.1ZM2.9,21.3l1.459.293a2.8,2.8,0,0,0,3.22-3.62l-2.648-7.9,1.82.463a2.8,2.8,0,0,0,3.372-1.953L11.2,4.795l1.078,3.779a2.8,2.8,0,0,0,3.385,1.96l1.8-.456-2.632,7.9a2.8,2.8,0,0,0,3.215,3.619l1.447-.294-3.971,6.351a9.824,9.824,0,0,0-2.942-.458H9.831a9.843,9.843,0,0,0-2.951.461ZM29.4,7.594a1.4,1.4,0,0,0,0-2.8H26.6a1.4,1.4,0,1,0,0,2.8Zm28-2.8H35a1.4,1.4,0,1,0,0,2.8h22.4a1.4,1.4,0,0,0,0-2.8Z" transform="translate(0 0.806)" fill="#3c435c"/>
  <path id="Path_63431" data-name="Path 63431" d="M19.41,11.4a1.4,1.4,0,0,0,1.4,1.4h29.4a1.4,1.4,0,1,0,0-2.8H20.81A1.4,1.4,0,0,0,19.41,11.4Zm1.4,8.4h29.4a1.4,1.4,0,1,0,0-2.8H20.81a1.4,1.4,0,0,0,0,2.8Zm0,7h29.4a1.4,1.4,0,1,0,0-2.8H20.81a1.4,1.4,0,1,0,0,2.8Zm30.8,5.6a1.4,1.4,0,0,0-1.4-1.4h-8.4a1.4,1.4,0,0,0,0,2.8h8.4A1.4,1.4,0,0,0,51.606,32.4Zm-5.6,33.6h7a1.4,1.4,0,0,0,1.4-1.4v-7a1.4,1.4,0,1,0-2.8,0v5.6h-5.6a1.4,1.4,0,0,0,0,2.8ZM14.21,53.9a1.4,1.4,0,0,0-1.912.512,14.064,14.064,0,0,0-.6,10.422,1.4,1.4,0,0,0,2.7-.75,11.506,11.506,0,0,1,.328-8.271A1.4,1.4,0,0,0,14.21,53.9Z" transform="translate(4.387 4)" fill="#3c435c"/>
</svg>
