<svg xmlns="http://www.w3.org/2000/svg" width="86.42" height="86.42" viewBox="0 0 86.42 86.42">
  <g id="_03" data-name="03" transform="translate(0 -0.003)">
    <path id="Path_63432" data-name="Path 63432" d="M15.831,233.642c-7.734-4.8-12.814-10.018-13.256-13.611-.453-3.675,2.694-12.515,8.633-24.253a1.268,1.268,0,1,0-2.263-1.145c-3.621,7.155-9.589,20.01-8.887,25.709.55,4.467,5.812,10.1,14.436,15.456a1.269,1.269,0,1,0,1.338-2.156ZM85.6,221.119a21.334,21.334,0,0,0-6.619-10.589,1.268,1.268,0,0,0-1.632,1.942c5.484,4.608,7.987,13.261,5.7,19.7-1.554,4.372-4.632,7.547-9.411,9.706a28.808,28.808,0,0,1-3.944,1.427l-1.67-4.226a1.268,1.268,0,1,0-2.359.932l1.545,3.91a68.142,68.142,0,0,1-37.854-3.6l2.453-2.424a1.268,1.268,0,0,0,.118-1.67l-2-2.63,3.84-3.607a1.269,1.269,0,1,0-1.737-1.849l-4.672,4.39a1.268,1.268,0,0,0-.141,1.692l2.016,2.653-2.441,2.413q-3.384-1.43-6.63-3.157a1.268,1.268,0,0,0-1.193,2.239c10.048,5.353,21.312,8.684,30.9,9.137q2.425.115,4.7.115c8.31,0,15.062-1.151,20.113-3.433,5.365-2.424,8.985-6.182,10.757-11.169a19.984,19.984,0,0,0,.161-11.9Z" transform="translate(0 -161.2)" fill="#3c435c"/>
    <path id="Path_63433" data-name="Path 63433" d="M66.709,30.63a1.269,1.269,0,0,0,1.717-.521c6.585-12.316,12.715-21.3,14.618-22.551,2.2-1.449,7.4-3.166,12.668-4.177,6.23-1.2,10.059-.98,11.089-.235,2.8,2.025,3.3,7.676,2.589,10.976-.642,2.966-2.888,6.208-4.929,6.113a9.327,9.327,0,0,1-5.739-2.617,1.274,1.274,0,0,0-1.646-.183,12.993,12.993,0,0,1-9.453,1.407,1.268,1.268,0,0,0-1.341.554c-.126.2-3.094,4.879-3.094,9.578,0,.428.008.948.017,1.55.081,5.417.27,18.1-4.624,23.615a1.272,1.272,0,0,0,1.74,1.833c.073-.059,7.454-5.869,16.43-6.532a21.685,21.685,0,0,1,9.025,1.171,16.617,16.617,0,0,1,2.246,1.008l-3.285,5.341a1.276,1.276,0,0,0,.511,1.8l2.79,1.4-2.588,4.9a1.268,1.268,0,1,0,2.243,1.185l3.193-6.041a1.276,1.276,0,0,0-.552-1.726l-2.712-1.362,3.183-5.176c.362-.441,4.44-5.111,13.768-4a14.475,14.475,0,0,1,3.661.927,1.269,1.269,0,1,0,.942-2.356,17.016,17.016,0,0,0-4.3-1.09c-8.723-1.038-13.533,2.452-15.315,4.154a22.713,22.713,0,0,0-12.994-2.658,33.486,33.486,0,0,0-13.292,4.155c2.674-6.785,2.536-16.071,2.469-20.58-.009-.592-.016-1.1-.016-1.512A17.121,17.121,0,0,1,87.995,21.5a15.63,15.63,0,0,0,9.627-1.451,11.613,11.613,0,0,0,6.717,2.725c1.782.084,3.516-.87,5.015-2.763a13.706,13.706,0,0,0,2.515-5.347c.671-3.1.678-10.49-3.582-13.569C105.713-.77,99,.167,95.234.891,89.5,1.991,84.169,3.778,81.647,5.442c-1.34.884-3.542,3.667-6.544,8.271-2.814,4.314-5.98,9.713-8.914,15.2a1.267,1.267,0,0,0,.52,1.716Z" transform="translate(-54.892 0)" fill="#3c435c"/>
    <path id="Path_63434" data-name="Path 63434" d="M246.591,108l2.347.88-2.259,8.021a1.275,1.275,0,0,0,2.065,1.291L260.2,107.98a1.277,1.277,0,0,0-.344-2.113l-3.058-1.311,6.149-5.971a1.277,1.277,0,0,0-.342-2.057l-8.613-4.064a1.269,1.269,0,0,0-1.682.593L245.9,106.262a1.277,1.277,0,0,0,.7,1.742Zm7.453-12.711,5.823,2.747-6.2,6.022a1.277,1.277,0,0,0,.384,2.076l2.975,1.275-6.727,6,1.4-4.961a1.268,1.268,0,0,0-.776-1.532l-2.135-.8Zm-18.406,11.434a1.268,1.268,0,0,0-1.206.2l-1.371,1.082-1.595-4.587a1.277,1.277,0,0,0-1.948-.607l-5.684,4.167a1.268,1.268,0,0,0-.282,1.761l6.321,8.835a1.276,1.276,0,0,0,1.863.22l1.172-1.017,4.2,4.091a1.275,1.275,0,0,0,2.121-1.194l-2.776-12.041a1.268,1.268,0,0,0-.815-.912Zm-1.8,7.425a1.269,1.269,0,0,0-1.716-.049l-1,.868-4.781-6.683,3.289-2.411,1.617,4.649a1.277,1.277,0,0,0,1.984.579l1.2-.946,1.357,5.887Z" transform="translate(-185.622 -76.754)" fill="#3c435c"/>
  </g>
</svg>
