<svg xmlns="http://www.w3.org/2000/svg" width="129.622" height="116.568" viewBox="0 0 129.622 116.568">
  <path id="Path_63445" data-name="Path 63445" d="M189.808,194.222a3.15,3.15,0,0,1-2.293-.99l-60.57-64.285a3.126,3.126,0,0,1-.361-.464,10,10,0,0,1,8.435-15.4h11.627V96.243a3.151,3.151,0,0,1,6.3,0v19.989a3.151,3.151,0,0,1-3.151,3.151H135.018a3.733,3.733,0,0,0-3.721,3.727,3.588,3.588,0,0,0,.465,1.762l58.046,61.607,1.951-2.07a3.15,3.15,0,0,1,4.586,4.321l-4.244,4.5a3.15,3.15,0,0,1-2.293.99Zm15.046-15.969a3.151,3.151,0,0,1-2.292-5.311l45.292-48.071a3.591,3.591,0,0,0,.465-1.762,3.732,3.732,0,0,0-3.721-3.727H231.159a3.151,3.151,0,0,1,0-6.3H244.6a10,10,0,0,1,8.435,15.4,3.2,3.2,0,0,1-.361.464l-45.525,48.313a3.141,3.141,0,0,1-2.294.99Zm24.65-72.964a3.151,3.151,0,0,1-3.151-3.151V88.052a4.1,4.1,0,0,0-4.1-4.1H157.041a4.1,4.1,0,0,0-2.061.555,3.15,3.15,0,0,1-3.179-5.44,10.394,10.394,0,0,1,5.24-1.415h65.216a10.408,10.408,0,0,1,10.4,10.4v14.086a3.151,3.151,0,0,1-3.151,3.151Z" transform="translate(-124.997 -77.655)" fill="#ff5f1c"/>
</svg>
