<svg xmlns="http://www.w3.org/2000/svg" width="147.727" height="115.688" viewBox="0 0 147.727 115.688">
  <path id="noun-customer-1863686" d="M126.614,130.429a23.309,23.309,0,1,0-16.483-6.827A23.311,23.311,0,0,0,126.614,130.429Zm0-39.961a16.67,16.67,0,1,1-11.768,4.883,16.654,16.654,0,0,1,11.768-4.883Zm73.263,79.922H168.059a13.175,13.175,0,0,0,1.848-6.66,19.982,19.982,0,0,0-19.98-19.98h-46.62a19.98,19.98,0,0,0-19.981,19.98,13.175,13.175,0,0,0,1.848,6.66H73.335a3.33,3.33,0,0,0,0,6.661H199.877a3.33,3.33,0,0,0,0-6.661Zm-103.234,0a6.668,6.668,0,0,1-6.66-6.66A13.336,13.336,0,0,1,103.3,150.409h46.62a13.336,13.336,0,0,1,13.321,13.321,6.668,6.668,0,0,1-6.661,6.66Zm120.083-85.5a3.33,3.33,0,0,0-1.846-5.68L201.4,77.25h0a3.333,3.333,0,0,1-2.508-1.822l-6.026-12.21a3.33,3.33,0,0,0-5.972,0l-6.025,12.21a3.337,3.337,0,0,1-2.508,1.822l-13.475,1.958a3.33,3.33,0,0,0-1.845,5.68l9.75,9.5h0a3.331,3.331,0,0,1,.958,2.948l-2.3,13.42a3.321,3.321,0,0,0,4.831,3.51l12.052-6.336a3.333,3.333,0,0,1,3.1,0l12.052,6.336a3.321,3.321,0,0,0,4.831-3.51l-2.3-13.42a3.331,3.331,0,0,1,.958-2.948Zm-14.4,4.734a9.987,9.987,0,0,0-2.873,8.843l1.161,6.77-6.079-3.2h0a9.992,9.992,0,0,0-9.3,0l-6.079,3.2,1.161-6.77a9.99,9.99,0,0,0-2.873-8.842l-4.918-4.794,6.8-.988a9.99,9.99,0,0,0,7.521-5.465l3.039-6.159,3.04,6.16a9.99,9.99,0,0,0,7.522,5.464l6.8.988Z" transform="translate(-70.004 -61.362)" fill="#ff5f1c"/>
</svg>
