<svg xmlns="http://www.w3.org/2000/svg" width="113.687" height="113.687" viewBox="0 0 113.687 113.687">
  <g id="noun-diet-988006" transform="translate(-69.998 0.004)">
    <path id="Path_63446" data-name="Path 63446" d="M156.447,41.919a21.1,21.1,0,0,0-9.237,2.132c-.237,0-.237,0-.473.237.711-2.842,2.842-7.816,9.948-10.185a2.4,2.4,0,1,0-1.658-4.5,19.538,19.538,0,0,0-13.5,14.921c-.237,0-.711-.237-.948-.237a21.88,21.88,0,0,0-9.237-2.132,21.565,21.565,0,0,0-9.474,2.369V33.155a9.5,9.5,0,0,0-9.474-9.474h-.948l0-9.947a2.238,2.238,0,0,0-2.369-2.369H98.419V4.734h6.632a2.238,2.238,0,0,0,2.369-2.369A2.238,2.238,0,0,0,105.052,0h-18a2.238,2.238,0,0,0-2.369,2.369,2.238,2.238,0,0,0,2.369,2.369h6.632v6.632h-10.9a2.238,2.238,0,0,0-2.369,2.369v9.71h-.947A9.5,9.5,0,0,0,70,32.919v71.29a9.5,9.5,0,0,0,9.474,9.474h32.923a9.565,9.565,0,0,0,7.343-3.553,22.961,22.961,0,0,0,11.606,3.553,20.207,20.207,0,0,0,7.343-1.421,15.042,15.042,0,0,1,10.185,0,19.3,19.3,0,0,0,7.343,1.421c15.156,0,27.472-16.105,27.472-36s-12.316-35.765-27.238-35.765ZM85.157,16.1h21.789v7.343H85.157ZM74.735,32.681a4.751,4.751,0,0,1,4.737-4.737h32.923a4.751,4.751,0,0,1,4.737,4.737V47.129c-.237.237-3.553,3.553-4.5,4.737,0,.237-.237.237-.237.473H74.735Zm0,24.4h34.579c-.237.237-.237.711-.473.948-5.447,9.948-4.5,21.316-4.5,22.027H74.735Zm37.659,51.87H79.474a4.751,4.751,0,0,1-4.737-4.737V84.789h30.08v.473c.237.948.711,11.369,11.132,22.027a4.632,4.632,0,0,1-3.554,1.658Zm44.054,0a15.922,15.922,0,0,1-5.684-.948,22.006,22.006,0,0,0-6.868-1.184A23.247,23.247,0,0,0,137.027,108a23.791,23.791,0,0,1-5.684.948c-11.606-.473-17.526-10.9-17.053-10.9-15.159-31.5,6.158-47.606,6.395-47.844a17,17,0,0,1,10.658-3.553,16.549,16.549,0,0,1,7.343,1.658,11.537,11.537,0,0,0,10.421,0,15.873,15.873,0,0,1,7.343-1.658c12.316,0,22.5,13.974,22.5,31.264s-10.185,31.028-22.5,31.028Z" transform="translate(0 0)" fill="#ff5f1c"/>
    <path id="Path_63447" data-name="Path 63447" d="M298.015,245c-10.658,0-19.185,12.553-19.185,27.949a2.369,2.369,0,0,0,4.738,0c0-12.316,6.868-23.21,14.448-23.21a2.238,2.238,0,0,0,2.369-2.369,2.375,2.375,0,0,0-2.37-2.369Z" transform="translate(-166.437 -195.265)" fill="#ff5f1c"/>
  </g>
</svg>
