<svg xmlns="http://www.w3.org/2000/svg" width="22.833" height="23.949" viewBox="0 0 22.833 23.949">
  <g id="noun-language-2496539" transform="translate(-86.794 -7.073)">
    <path id="Path_63420" data-name="Path 63420" d="M228.576,162.96a6.816,6.816,0,1,0,5.134,11.278h.03v-.03a6.726,6.726,0,0,0,1.65-4.432,6.822,6.822,0,0,0-6.816-6.816Zm2.231,10.422H229v-3.209h2.6a8.413,8.413,0,0,1-.795,3.209Zm-5.012-3.179h2.384v3.209h-1.589A8.556,8.556,0,0,1,225.794,170.2Zm2.384-3.79v2.965h-2.384a9.087,9.087,0,0,1,.672-2.965Zm.825,2.934v-2.965h1.926a9.085,9.085,0,0,1,.672,2.965Zm0-5.532a.674.674,0,0,1,.245.031,8.513,8.513,0,0,1,1.284,1.742H229Zm-.825,1.773h-1.314a8.08,8.08,0,0,1,1.314-1.773Zm-4.523.825h1.926a9.862,9.862,0,0,0-.611,2.965h-2.323A5.833,5.833,0,0,1,223.655,166.413Zm-1.039,3.79h2.323a9.758,9.758,0,0,0,.7,3.209h-1.834A6.224,6.224,0,0,1,222.616,170.2Zm5.562,5.5a8.537,8.537,0,0,1-1.131-1.467h1.131Zm.825.03v-1.5h1.345a8.957,8.957,0,0,1-1.161,1.5H229Zm4.34-2.353h-1.62a9.041,9.041,0,0,0,.7-3.209h2.109A5.569,5.569,0,0,1,233.343,173.382Zm1.222-4.034h-2.139a9.168,9.168,0,0,0-.611-2.965H233.5a6.114,6.114,0,0,1,1.07,2.965Z" transform="translate(-130.365 -150.366)" fill="#fff"/>
    <path id="Path_63421" data-name="Path 63421" d="M109.135,19.089a.52.52,0,0,0-.517.517A10.408,10.408,0,1,1,97.5,9.223l-.443.344a.505.505,0,0,0,.3.91.43.43,0,0,0,.3-.1L99.318,9.1a.525.525,0,0,0,.2-.418.466.466,0,0,0-.221-.394L97.62,7.156a.5.5,0,1,0-.541.837l.344.221a11.418,11.418,0,1,0,12.2,11.392.5.5,0,0,0-.492-.517Z" transform="translate(0 0)" fill="#fff"/>
    <path id="Path_63422" data-name="Path 63422" d="M574.11,218.455a.615.615,0,1,1-.615-.615.615.615,0,0,1,.615.615" transform="translate(-464.729 -201.506)" fill="#fff"/>
    <path id="Path_63423" data-name="Path 63423" d="M555.63,166.375a.615.615,0,1,1-.615-.615.615.615,0,0,1,.615.615" transform="translate(-447.061 -151.715)" fill="#fff"/>
    <path id="Path_63424" data-name="Path 63424" d="M522.03,117.655a.615.615,0,1,1-.615-.615.615.615,0,0,1,.615.615" transform="translate(-414.937 -105.135)" fill="#fff"/>
    <path id="Path_63425" data-name="Path 63425" d="M474.99,75.654a.615.615,0,1,1-.615-.615.615.615,0,0,1,.615.615" transform="translate(-369.964 -64.98)" fill="#fff"/>
    <path id="Path_63426" data-name="Path 63426" d="M419.55,45.974a.615.615,0,1,1-.615-.615.615.615,0,0,1,.615.615" transform="translate(-316.96 -36.604)" fill="#fff"/>
  </g>
</svg>
