<svg xmlns="http://www.w3.org/2000/svg" width="503" height="217" viewBox="0 0 503 217">
  <g id="Group_174248" data-name="Group 174248" transform="translate(2303.773 9506.053)" opacity="0.31">
    <circle id="Ellipse_893" data-name="Ellipse 893" cx="12" cy="12" r="12" transform="translate(-1824.773 -9506.053)" fill="#ff4604"/>
    <ellipse id="Ellipse_894" data-name="Ellipse 894" cx="12" cy="12.5" rx="12" ry="12.5" transform="translate(-1824.773 -9469.053)" fill="#ff4604"/>
    <ellipse id="Ellipse_895" data-name="Ellipse 895" cx="12" cy="12.5" rx="12" ry="12.5" transform="translate(-1824.773 -9431.053)" fill="#ff4604"/>
    <ellipse id="Ellipse_896" data-name="Ellipse 896" cx="12.5" cy="12" rx="12.5" ry="12" transform="translate(-2101.773 -9397.053)" fill="#ff4604"/>
    <ellipse id="Ellipse_897" data-name="Ellipse 897" cx="12.5" cy="12" rx="12.5" ry="12" transform="translate(-2101.773 -9363.053)" fill="#ff4604"/>
    <circle id="Ellipse_898" data-name="Ellipse 898" cx="12.5" cy="12.5" r="12.5" transform="translate(-2101.773 -9330.053)" fill="#ff4604"/>
    <circle id="Ellipse_902" data-name="Ellipse 902" cx="8" cy="8" r="8" transform="translate(-2097.773 -9501.053)" fill="#ff4604"/>
    <circle id="Ellipse_903" data-name="Ellipse 903" cx="8" cy="8" r="8" transform="translate(-2097.773 -9462.053)" fill="#ff4604"/>
    <ellipse id="Ellipse_904" data-name="Ellipse 904" cx="8" cy="8.5" rx="8" ry="8.5" transform="translate(-2097.773 -9423.053)" fill="#ff4604"/>
    <circle id="Ellipse_905" data-name="Ellipse 905" cx="8" cy="8" r="8" transform="translate(-1816.773 -9393.053)" fill="#ff4604"/>
    <circle id="Ellipse_906" data-name="Ellipse 906" cx="8" cy="8" r="8" transform="translate(-1816.773 -9363.053)" fill="#ff4604"/>
    <ellipse id="Ellipse_907" data-name="Ellipse 907" cx="8" cy="8.5" rx="8" ry="8.5" transform="translate(-1816.773 -9334.053)" fill="#ff4604"/>
    <circle id="Ellipse_908" data-name="Ellipse 908" cx="8" cy="8" r="8" transform="translate(-1816.773 -9305.053)" fill="#ff4604"/>
    <circle id="Ellipse_911" data-name="Ellipse 911" cx="8" cy="8" r="8" transform="translate(-2211.773 -9501.053)" fill="#ff4604"/>
    <circle id="Ellipse_912" data-name="Ellipse 912" cx="8" cy="8" r="8" transform="translate(-2211.773 -9462.053)" fill="#ff4604"/>
    <ellipse id="Ellipse_913" data-name="Ellipse 913" cx="8" cy="8.5" rx="8" ry="8.5" transform="translate(-2211.773 -9423.053)" fill="#ff4604"/>
    <circle id="Ellipse_914" data-name="Ellipse 914" cx="8" cy="8" r="8" transform="translate(-1931.773 -9393.053)" fill="#ff4604"/>
    <circle id="Ellipse_915" data-name="Ellipse 915" cx="8" cy="8" r="8" transform="translate(-1931.773 -9363.053)" fill="#ff4604"/>
    <ellipse id="Ellipse_916" data-name="Ellipse 916" cx="8" cy="8.5" rx="8" ry="8.5" transform="translate(-1931.773 -9334.053)" fill="#ff4604"/>
    <circle id="Ellipse_917" data-name="Ellipse 917" cx="8" cy="8" r="8" transform="translate(-1931.773 -9305.053)" fill="#ff4604"/>
    <circle id="Ellipse_920" data-name="Ellipse 920" cx="8" cy="8" r="8" transform="translate(-2156.773 -9501.053)" fill="#ff4604"/>
    <circle id="Ellipse_921" data-name="Ellipse 921" cx="8" cy="8" r="8" transform="translate(-2156.773 -9462.053)" fill="#ff4604"/>
    <ellipse id="Ellipse_922" data-name="Ellipse 922" cx="8" cy="8.5" rx="8" ry="8.5" transform="translate(-2156.773 -9423.053)" fill="#ff4604"/>
    <circle id="Ellipse_923" data-name="Ellipse 923" cx="8" cy="8" r="8" transform="translate(-1875.773 -9393.053)" fill="#ff4604"/>
    <circle id="Ellipse_924" data-name="Ellipse 924" cx="8" cy="8" r="8" transform="translate(-1875.773 -9363.053)" fill="#ff4604"/>
    <ellipse id="Ellipse_925" data-name="Ellipse 925" cx="8" cy="8.5" rx="8" ry="8.5" transform="translate(-1875.773 -9334.053)" fill="#ff4604"/>
    <circle id="Ellipse_926" data-name="Ellipse 926" cx="8" cy="8" r="8" transform="translate(-1875.773 -9305.053)" fill="#ff4604"/>
    <circle id="Ellipse_929" data-name="Ellipse 929" cx="8" cy="8" r="8" transform="translate(-2271.773 -9501.053)" fill="#ff4604"/>
    <circle id="Ellipse_930" data-name="Ellipse 930" cx="8" cy="8" r="8" transform="translate(-2271.773 -9462.053)" fill="#ff4604"/>
    <ellipse id="Ellipse_931" data-name="Ellipse 931" cx="8" cy="8.5" rx="8" ry="8.5" transform="translate(-2271.773 -9423.053)" fill="#ff4604"/>
    <circle id="Ellipse_932" data-name="Ellipse 932" cx="8" cy="8" r="8" transform="translate(-1990.773 -9393.053)" fill="#ff4604"/>
    <circle id="Ellipse_933" data-name="Ellipse 933" cx="8" cy="8" r="8" transform="translate(-1990.773 -9363.053)" fill="#ff4604"/>
    <ellipse id="Ellipse_934" data-name="Ellipse 934" cx="8" cy="8.5" rx="8" ry="8.5" transform="translate(-1990.773 -9334.053)" fill="#ff4604"/>
    <circle id="Ellipse_935" data-name="Ellipse 935" cx="8" cy="8" r="8" transform="translate(-1990.773 -9305.053)" fill="#ff4604"/>
    <circle id="Ellipse_938" data-name="Ellipse 938" cx="8" cy="8" r="8" transform="translate(-2126.773 -9501.053)" fill="#ff4604"/>
    <circle id="Ellipse_939" data-name="Ellipse 939" cx="8" cy="8" r="8" transform="translate(-2126.773 -9462.053)" fill="#ff4604"/>
    <ellipse id="Ellipse_940" data-name="Ellipse 940" cx="8" cy="8.5" rx="8" ry="8.5" transform="translate(-2126.773 -9423.053)" fill="#ff4604"/>
    <ellipse id="Ellipse_941" data-name="Ellipse 941" cx="8.5" cy="8" rx="8.5" ry="8" transform="translate(-1846.773 -9393.053)" fill="#ff4604"/>
    <ellipse id="Ellipse_942" data-name="Ellipse 942" cx="8.5" cy="8" rx="8.5" ry="8" transform="translate(-1846.773 -9363.053)" fill="#ff4604"/>
    <circle id="Ellipse_943" data-name="Ellipse 943" cx="8.5" cy="8.5" r="8.5" transform="translate(-1846.773 -9334.053)" fill="#ff4604"/>
    <ellipse id="Ellipse_944" data-name="Ellipse 944" cx="8.5" cy="8" rx="8.5" ry="8" transform="translate(-1846.773 -9305.053)" fill="#ff4604"/>
    <circle id="Ellipse_947" data-name="Ellipse 947" cx="8" cy="8" r="8" transform="translate(-2241.773 -9501.053)" fill="#ff4604"/>
    <circle id="Ellipse_948" data-name="Ellipse 948" cx="8" cy="8" r="8" transform="translate(-2241.773 -9462.053)" fill="#ff4604"/>
    <ellipse id="Ellipse_949" data-name="Ellipse 949" cx="8" cy="8.5" rx="8" ry="8.5" transform="translate(-2241.773 -9423.053)" fill="#ff4604"/>
    <circle id="Ellipse_950" data-name="Ellipse 950" cx="8" cy="8" r="8" transform="translate(-1960.773 -9393.053)" fill="#ff4604"/>
    <circle id="Ellipse_951" data-name="Ellipse 951" cx="8" cy="8" r="8" transform="translate(-1960.773 -9363.053)" fill="#ff4604"/>
    <ellipse id="Ellipse_952" data-name="Ellipse 952" cx="8" cy="8.5" rx="8" ry="8.5" transform="translate(-1960.773 -9334.053)" fill="#ff4604"/>
    <circle id="Ellipse_953" data-name="Ellipse 953" cx="8" cy="8" r="8" transform="translate(-1960.773 -9305.053)" fill="#ff4604"/>
    <circle id="Ellipse_956" data-name="Ellipse 956" cx="8" cy="8" r="8" transform="translate(-2186.773 -9501.053)" fill="#ff4604"/>
    <circle id="Ellipse_957" data-name="Ellipse 957" cx="8" cy="8" r="8" transform="translate(-2186.773 -9462.053)" fill="#ff4604"/>
    <ellipse id="Ellipse_958" data-name="Ellipse 958" cx="8" cy="8.5" rx="8" ry="8.5" transform="translate(-2186.773 -9423.053)" fill="#ff4604"/>
    <circle id="Ellipse_959" data-name="Ellipse 959" cx="8" cy="8" r="8" transform="translate(-1905.773 -9393.053)" fill="#ff4604"/>
    <circle id="Ellipse_960" data-name="Ellipse 960" cx="8" cy="8" r="8" transform="translate(-1905.773 -9363.053)" fill="#ff4604"/>
    <ellipse id="Ellipse_961" data-name="Ellipse 961" cx="8" cy="8.5" rx="8" ry="8.5" transform="translate(-1905.773 -9334.053)" fill="#ff4604"/>
    <circle id="Ellipse_962" data-name="Ellipse 962" cx="8" cy="8" r="8" transform="translate(-1905.773 -9305.053)" fill="#ff4604"/>
    <ellipse id="Ellipse_965" data-name="Ellipse 965" cx="8.5" cy="8" rx="8.5" ry="8" transform="translate(-2301.773 -9501.053)" fill="#ff4604"/>
    <ellipse id="Ellipse_966" data-name="Ellipse 966" cx="8.5" cy="8" rx="8.5" ry="8" transform="translate(-2301.773 -9462.053)" fill="#ff4604"/>
    <circle id="Ellipse_967" data-name="Ellipse 967" cx="8.5" cy="8.5" r="8.5" transform="translate(-2301.773 -9423.053)" fill="#ff4604"/>
    <circle id="Ellipse_968" data-name="Ellipse 968" cx="8" cy="8" r="8" transform="translate(-2020.773 -9393.053)" fill="#ff4604"/>
    <circle id="Ellipse_969" data-name="Ellipse 969" cx="8" cy="8" r="8" transform="translate(-2020.773 -9363.053)" fill="#ff4604"/>
    <ellipse id="Ellipse_970" data-name="Ellipse 970" cx="8" cy="8.5" rx="8" ry="8.5" transform="translate(-2020.773 -9334.053)" fill="#ff4604"/>
    <circle id="Ellipse_971" data-name="Ellipse 971" cx="8" cy="8" r="8" transform="translate(-2020.773 -9305.053)" fill="#ff4604"/>
    <circle id="Ellipse_972" data-name="Ellipse 972" cx="8" cy="8" r="8" transform="translate(-2056.773 -9393.053)" fill="#ff4604"/>
    <circle id="Ellipse_973" data-name="Ellipse 973" cx="8" cy="8" r="8" transform="translate(-2056.773 -9363.053)" fill="#ff4604"/>
    <ellipse id="Ellipse_974" data-name="Ellipse 974" cx="8" cy="8.5" rx="8" ry="8.5" transform="translate(-2056.773 -9334.053)" fill="#ff4604"/>
    <circle id="Ellipse_975" data-name="Ellipse 975" cx="8" cy="8" r="8" transform="translate(-2056.773 -9305.053)" fill="#ff4604"/>
    <circle id="Ellipse_977" data-name="Ellipse 977" cx="12" cy="12" r="12" transform="translate(-1959.773 -9506.053)" fill="#ff4604"/>
    <ellipse id="Ellipse_978" data-name="Ellipse 978" cx="12" cy="12.5" rx="12" ry="12.5" transform="translate(-1959.773 -9469.053)" fill="#ff4604"/>
    <ellipse id="Ellipse_979" data-name="Ellipse 979" cx="12" cy="12.5" rx="12" ry="12.5" transform="translate(-1959.773 -9431.053)" fill="#ff4604"/>
    <ellipse id="Ellipse_980" data-name="Ellipse 980" cx="12.5" cy="12" rx="12.5" ry="12" transform="translate(-2236.773 -9397.053)" fill="#ff4604"/>
    <ellipse id="Ellipse_981" data-name="Ellipse 981" cx="12.5" cy="12" rx="12.5" ry="12" transform="translate(-2236.773 -9363.053)" fill="#ff4604"/>
    <circle id="Ellipse_982" data-name="Ellipse 982" cx="12.5" cy="12.5" r="12.5" transform="translate(-2236.773 -9330.053)" fill="#ff4604"/>
    <ellipse id="Ellipse_985" data-name="Ellipse 985" cx="12.5" cy="12" rx="12.5" ry="12" transform="translate(-1892.773 -9506.053)" fill="#ff4604"/>
    <circle id="Ellipse_986" data-name="Ellipse 986" cx="12.5" cy="12.5" r="12.5" transform="translate(-1892.773 -9469.053)" fill="#ff4604"/>
    <circle id="Ellipse_987" data-name="Ellipse 987" cx="12.5" cy="12.5" r="12.5" transform="translate(-1892.773 -9431.053)" fill="#ff4604"/>
    <circle id="Ellipse_988" data-name="Ellipse 988" cx="12" cy="12" r="12" transform="translate(-2168.773 -9397.053)" fill="#ff4604"/>
    <circle id="Ellipse_989" data-name="Ellipse 989" cx="12" cy="12" r="12" transform="translate(-2168.773 -9363.053)" fill="#ff4604"/>
    <ellipse id="Ellipse_990" data-name="Ellipse 990" cx="12" cy="12.5" rx="12" ry="12.5" transform="translate(-2168.773 -9330.053)" fill="#ff4604"/>
    <ellipse id="Ellipse_993" data-name="Ellipse 993" cx="12.5" cy="12" rx="12.5" ry="12" transform="translate(-2027.773 -9506.053)" fill="#ff4604"/>
    <circle id="Ellipse_994" data-name="Ellipse 994" cx="12.5" cy="12.5" r="12.5" transform="translate(-2027.773 -9469.053)" fill="#ff4604"/>
    <circle id="Ellipse_995" data-name="Ellipse 995" cx="12.5" cy="12.5" r="12.5" transform="translate(-2027.773 -9431.053)" fill="#ff4604"/>
    <circle id="Ellipse_996" data-name="Ellipse 996" cx="12" cy="12" r="12" transform="translate(-2303.773 -9397.053)" fill="#ff4604"/>
    <circle id="Ellipse_997" data-name="Ellipse 997" cx="12" cy="12" r="12" transform="translate(-2303.773 -9363.053)" fill="#ff4604"/>
    <ellipse id="Ellipse_998" data-name="Ellipse 998" cx="12" cy="12.5" rx="12" ry="12.5" transform="translate(-2303.773 -9330.053)" fill="#ff4604"/>
    <circle id="Ellipse_1001" data-name="Ellipse 1001" cx="12" cy="12" r="12" transform="translate(-1858.773 -9506.053)" fill="#ff4604"/>
    <ellipse id="Ellipse_1002" data-name="Ellipse 1002" cx="12" cy="12.5" rx="12" ry="12.5" transform="translate(-1858.773 -9469.053)" fill="#ff4604"/>
    <ellipse id="Ellipse_1003" data-name="Ellipse 1003" cx="12" cy="12.5" rx="12" ry="12.5" transform="translate(-1858.773 -9431.053)" fill="#ff4604"/>
    <ellipse id="Ellipse_1004" data-name="Ellipse 1004" cx="12.5" cy="12" rx="12.5" ry="12" transform="translate(-2135.773 -9397.053)" fill="#ff4604"/>
    <ellipse id="Ellipse_1005" data-name="Ellipse 1005" cx="12.5" cy="12" rx="12.5" ry="12" transform="translate(-2135.773 -9363.053)" fill="#ff4604"/>
    <circle id="Ellipse_1006" data-name="Ellipse 1006" cx="12.5" cy="12.5" r="12.5" transform="translate(-2135.773 -9330.053)" fill="#ff4604"/>
    <ellipse id="Ellipse_1009" data-name="Ellipse 1009" cx="12.5" cy="12" rx="12.5" ry="12" transform="translate(-1993.773 -9506.053)" fill="#ff4604"/>
    <circle id="Ellipse_1010" data-name="Ellipse 1010" cx="12.5" cy="12.5" r="12.5" transform="translate(-1993.773 -9469.053)" fill="#ff4604"/>
    <circle id="Ellipse_1011" data-name="Ellipse 1011" cx="12.5" cy="12.5" r="12.5" transform="translate(-1993.773 -9431.053)" fill="#ff4604"/>
    <circle id="Ellipse_1012" data-name="Ellipse 1012" cx="12" cy="12" r="12" transform="translate(-2269.773 -9397.053)" fill="#ff4604"/>
    <circle id="Ellipse_1013" data-name="Ellipse 1013" cx="12" cy="12" r="12" transform="translate(-2269.773 -9363.053)" fill="#ff4604"/>
    <ellipse id="Ellipse_1014" data-name="Ellipse 1014" cx="12" cy="12.5" rx="12" ry="12.5" transform="translate(-2269.773 -9330.053)" fill="#ff4604"/>
    <circle id="Ellipse_1017" data-name="Ellipse 1017" cx="12" cy="12" r="12" transform="translate(-1925.773 -9506.053)" fill="#ff4604"/>
    <ellipse id="Ellipse_1018" data-name="Ellipse 1018" cx="12" cy="12.5" rx="12" ry="12.5" transform="translate(-1925.773 -9469.053)" fill="#ff4604"/>
    <ellipse id="Ellipse_1019" data-name="Ellipse 1019" cx="12" cy="12.5" rx="12" ry="12.5" transform="translate(-1925.773 -9431.053)" fill="#ff4604"/>
    <circle id="Ellipse_1020" data-name="Ellipse 1020" cx="12" cy="12" r="12" transform="translate(-2202.773 -9397.053)" fill="#ff4604"/>
    <circle id="Ellipse_1021" data-name="Ellipse 1021" cx="12" cy="12" r="12" transform="translate(-2202.773 -9363.053)" fill="#ff4604"/>
    <ellipse id="Ellipse_1022" data-name="Ellipse 1022" cx="12" cy="12.5" rx="12" ry="12.5" transform="translate(-2202.773 -9330.053)" fill="#ff4604"/>
    <circle id="Ellipse_1025" data-name="Ellipse 1025" cx="12" cy="12" r="12" transform="translate(-2060.773 -9506.053)" fill="#ff4604"/>
    <ellipse id="Ellipse_1026" data-name="Ellipse 1026" cx="12" cy="12.5" rx="12" ry="12.5" transform="translate(-2060.773 -9469.053)" fill="#ff4604"/>
    <ellipse id="Ellipse_1027" data-name="Ellipse 1027" cx="12" cy="12.5" rx="12" ry="12.5" transform="translate(-2060.773 -9431.053)" fill="#ff4604"/>
  </g>
</svg>
