<svg xmlns="http://www.w3.org/2000/svg" width="23.33" height="28.617" viewBox="0 0 23.33 28.617">
    <g id="apple" transform="translate(-2.104)">
      <path id="Path_63427" data-name="Path 63427" d="M19.276,0h.2a6.128,6.128,0,0,1-1.543,4.618,4.784,4.784,0,0,1-4.211,1.977A5.944,5.944,0,0,1,15.3,2.12,6.785,6.785,0,0,1,19.276,0Zm6.159,21.006v.057a16.65,16.65,0,0,1-2.383,4.593c-.909,1.25-2.022,2.933-4.01,2.933-1.718,0-2.859-1.1-4.619-1.135-1.862-.03-2.886.924-4.589,1.164H9.253a5.185,5.185,0,0,1-2.995-2.063A18.078,18.078,0,0,1,2.1,16.154V14.873A8.387,8.387,0,0,1,5.766,7.99a6.184,6.184,0,0,1,4.152-.961,10.445,10.445,0,0,1,2.034.583,5.618,5.618,0,0,0,2.033.609,4.881,4.881,0,0,0,1.426-.436A8.776,8.776,0,0,1,20,6.97a6.367,6.367,0,0,1,4.678,2.79,6,6,0,0,0-3.05,5.956A6.149,6.149,0,0,0,25.434,21.006Z" fill="#3c435c"/>
    </g>
  </svg>
  