<svg xmlns="http://www.w3.org/2000/svg" xmlns:xlink="http://www.w3.org/1999/xlink" width="1366" height="527" viewBox="0 0 1366 527">
  <defs>
    <clipPath id="clip-path">
      <rect id="Rectangle_27240" data-name="Rectangle 27240" width="1366" height="527" transform="translate(0 2936)" fill="red" opacity="0"/>
    </clipPath>
    <clipPath id="clip-path-2">
      <rect id="Rectangle_27235" data-name="Rectangle 27235" width="507" height="293" transform="translate(859 2425)" fill="#fff"/>
    </clipPath>
  </defs>
  <g id="Mask_Group_2223" data-name="Mask Group 2223" transform="translate(0 -2936)" clip-path="url(#clip-path)">
    <path id="Path_63440" data-name="Path 63440" d="M0,0S517.5,139.2,859,139.2,1367.441-141.2,1367.441-141.2L1366,388H0Z" transform="translate(0 3074.817)" fill="#10437d"/>
  </g>
  <g id="Mask_Group_2218" data-name="Mask Group 2218" transform="translate(-15.5 -2418.183)" opacity="0.19" clip-path="url(#clip-path-2)">
    <g id="Group_174279" data-name="Group 174279" transform="translate(3196.772 12007.053)" opacity="0.31">
      <circle id="Ellipse_3058" data-name="Ellipse 3058" cx="12" cy="12" r="12" transform="translate(-1824.773 -9506.053)" fill="#fff"/>
      <ellipse id="Ellipse_3059" data-name="Ellipse 3059" cx="12" cy="12.5" rx="12" ry="12.5" transform="translate(-1824.773 -9469.053)" fill="#fff"/>
      <ellipse id="Ellipse_3060" data-name="Ellipse 3060" cx="12" cy="12.5" rx="12" ry="12.5" transform="translate(-1824.773 -9431.053)" fill="#fff"/>
      <ellipse id="Ellipse_3061" data-name="Ellipse 3061" cx="12.5" cy="12" rx="12.5" ry="12" transform="translate(-2101.773 -9397.053)" fill="#fff"/>
      <ellipse id="Ellipse_3062" data-name="Ellipse 3062" cx="12.5" cy="12" rx="12.5" ry="12" transform="translate(-2101.773 -9363.053)" fill="#fff"/>
      <circle id="Ellipse_3063" data-name="Ellipse 3063" cx="12.5" cy="12.5" r="12.5" transform="translate(-2101.773 -9330.053)" fill="#fff"/>
      <circle id="Ellipse_3064" data-name="Ellipse 3064" cx="8" cy="8" r="8" transform="translate(-2097.773 -9501.053)" fill="#fff"/>
      <circle id="Ellipse_3065" data-name="Ellipse 3065" cx="8" cy="8" r="8" transform="translate(-2097.773 -9462.053)" fill="#fff"/>
      <ellipse id="Ellipse_3066" data-name="Ellipse 3066" cx="8" cy="8.5" rx="8" ry="8.5" transform="translate(-2097.773 -9423.053)" fill="#fff"/>
      <circle id="Ellipse_3067" data-name="Ellipse 3067" cx="8" cy="8" r="8" transform="translate(-1816.773 -9393.053)" fill="#fff"/>
      <circle id="Ellipse_3068" data-name="Ellipse 3068" cx="8" cy="8" r="8" transform="translate(-1816.773 -9363.053)" fill="#fff"/>
      <ellipse id="Ellipse_3069" data-name="Ellipse 3069" cx="8" cy="8.5" rx="8" ry="8.5" transform="translate(-1816.773 -9334.053)" fill="#fff"/>
      <circle id="Ellipse_3070" data-name="Ellipse 3070" cx="8" cy="8" r="8" transform="translate(-1816.773 -9305.053)" fill="#fff"/>
      <circle id="Ellipse_3071" data-name="Ellipse 3071" cx="8" cy="8" r="8" transform="translate(-2211.773 -9501.053)" fill="#fff"/>
      <circle id="Ellipse_3373" data-name="Ellipse 3373" cx="8" cy="8" r="8" transform="translate(-2179.773 -9527.053)" fill="#fff"/>
      <circle id="Ellipse_3376" data-name="Ellipse 3376" cx="8" cy="8" r="8" transform="translate(-2156.773 -9558.053)" fill="#fff"/>
      <circle id="Ellipse_3072" data-name="Ellipse 3072" cx="8" cy="8" r="8" transform="translate(-2211.773 -9462.053)" fill="#fff"/>
      <ellipse id="Ellipse_3073" data-name="Ellipse 3073" cx="8" cy="8.5" rx="8" ry="8.5" transform="translate(-2211.773 -9423.053)" fill="#fff"/>
      <circle id="Ellipse_3074" data-name="Ellipse 3074" cx="8" cy="8" r="8" transform="translate(-1931.773 -9393.053)" fill="#fff"/>
      <circle id="Ellipse_3075" data-name="Ellipse 3075" cx="8" cy="8" r="8" transform="translate(-1931.773 -9363.053)" fill="#fff"/>
      <ellipse id="Ellipse_3076" data-name="Ellipse 3076" cx="8" cy="8.5" rx="8" ry="8.5" transform="translate(-1931.773 -9334.053)" fill="#fff"/>
      <circle id="Ellipse_3077" data-name="Ellipse 3077" cx="8" cy="8" r="8" transform="translate(-1931.773 -9305.053)" fill="#fff"/>
      <circle id="Ellipse_3078" data-name="Ellipse 3078" cx="8" cy="8" r="8" transform="translate(-2156.773 -9501.053)" fill="#fff"/>
      <circle id="Ellipse_3079" data-name="Ellipse 3079" cx="8" cy="8" r="8" transform="translate(-2156.773 -9462.053)" fill="#fff"/>
      <ellipse id="Ellipse_3080" data-name="Ellipse 3080" cx="8" cy="8.5" rx="8" ry="8.5" transform="translate(-2156.773 -9423.053)" fill="#fff"/>
      <circle id="Ellipse_3081" data-name="Ellipse 3081" cx="8" cy="8" r="8" transform="translate(-1875.773 -9393.053)" fill="#fff"/>
      <circle id="Ellipse_3082" data-name="Ellipse 3082" cx="8" cy="8" r="8" transform="translate(-1875.773 -9363.053)" fill="#fff"/>
      <ellipse id="Ellipse_3083" data-name="Ellipse 3083" cx="8" cy="8.5" rx="8" ry="8.5" transform="translate(-1875.773 -9334.053)" fill="#fff"/>
      <circle id="Ellipse_3084" data-name="Ellipse 3084" cx="8" cy="8" r="8" transform="translate(-1875.773 -9305.053)" fill="#fff"/>
      <circle id="Ellipse_3085" data-name="Ellipse 3085" cx="8" cy="8" r="8" transform="translate(-2271.773 -9501.053)" fill="#fff"/>
      <circle id="Ellipse_3086" data-name="Ellipse 3086" cx="8" cy="8" r="8" transform="translate(-2271.773 -9462.053)" fill="#fff"/>
      <ellipse id="Ellipse_3087" data-name="Ellipse 3087" cx="8" cy="8.5" rx="8" ry="8.5" transform="translate(-2271.773 -9423.053)" fill="#fff"/>
      <circle id="Ellipse_3088" data-name="Ellipse 3088" cx="8" cy="8" r="8" transform="translate(-1990.773 -9393.053)" fill="#fff"/>
      <circle id="Ellipse_3089" data-name="Ellipse 3089" cx="8" cy="8" r="8" transform="translate(-1990.773 -9363.053)" fill="#fff"/>
      <ellipse id="Ellipse_3090" data-name="Ellipse 3090" cx="8" cy="8.5" rx="8" ry="8.5" transform="translate(-1990.773 -9334.053)" fill="#fff"/>
      <circle id="Ellipse_3091" data-name="Ellipse 3091" cx="8" cy="8" r="8" transform="translate(-1990.773 -9305.053)" fill="#fff"/>
      <circle id="Ellipse_3092" data-name="Ellipse 3092" cx="8" cy="8" r="8" transform="translate(-2126.773 -9501.053)" fill="#fff"/>
      <circle id="Ellipse_3093" data-name="Ellipse 3093" cx="8" cy="8" r="8" transform="translate(-2126.773 -9462.053)" fill="#fff"/>
      <ellipse id="Ellipse_3094" data-name="Ellipse 3094" cx="8" cy="8.5" rx="8" ry="8.5" transform="translate(-2126.773 -9423.053)" fill="#fff"/>
      <ellipse id="Ellipse_3095" data-name="Ellipse 3095" cx="8.5" cy="8" rx="8.5" ry="8" transform="translate(-1846.773 -9393.053)" fill="#fff"/>
      <ellipse id="Ellipse_3096" data-name="Ellipse 3096" cx="8.5" cy="8" rx="8.5" ry="8" transform="translate(-1846.773 -9363.053)" fill="#fff"/>
      <circle id="Ellipse_3097" data-name="Ellipse 3097" cx="8.5" cy="8.5" r="8.5" transform="translate(-1846.773 -9334.053)" fill="#fff"/>
      <ellipse id="Ellipse_3098" data-name="Ellipse 3098" cx="8.5" cy="8" rx="8.5" ry="8" transform="translate(-1846.773 -9305.053)" fill="#fff"/>
      <circle id="Ellipse_3099" data-name="Ellipse 3099" cx="8" cy="8" r="8" transform="translate(-2241.773 -9501.053)" fill="#fff"/>
      <circle id="Ellipse_3374" data-name="Ellipse 3374" cx="8" cy="8" r="8" transform="translate(-2209.773 -9527.053)" fill="#fff"/>
      <circle id="Ellipse_3377" data-name="Ellipse 3377" cx="8" cy="8" r="8" transform="translate(-2186.773 -9558.053)" fill="#fff"/>
      <circle id="Ellipse_3100" data-name="Ellipse 3100" cx="8" cy="8" r="8" transform="translate(-2241.773 -9462.053)" fill="#fff"/>
      <ellipse id="Ellipse_3101" data-name="Ellipse 3101" cx="8" cy="8.5" rx="8" ry="8.5" transform="translate(-2241.773 -9423.053)" fill="#fff"/>
      <circle id="Ellipse_3102" data-name="Ellipse 3102" cx="8" cy="8" r="8" transform="translate(-1960.773 -9393.053)" fill="#fff"/>
      <circle id="Ellipse_3103" data-name="Ellipse 3103" cx="8" cy="8" r="8" transform="translate(-1960.773 -9363.053)" fill="#fff"/>
      <ellipse id="Ellipse_3104" data-name="Ellipse 3104" cx="8" cy="8.5" rx="8" ry="8.5" transform="translate(-1960.773 -9334.053)" fill="#fff"/>
      <circle id="Ellipse_3105" data-name="Ellipse 3105" cx="8" cy="8" r="8" transform="translate(-1960.773 -9305.053)" fill="#fff"/>
      <circle id="Ellipse_3106" data-name="Ellipse 3106" cx="8" cy="8" r="8" transform="translate(-2186.773 -9501.053)" fill="#fff"/>
      <circle id="Ellipse_3375" data-name="Ellipse 3375" cx="8" cy="8" r="8" transform="translate(-2154.773 -9527.053)" fill="#fff"/>
      <circle id="Ellipse_3378" data-name="Ellipse 3378" cx="8" cy="8" r="8" transform="translate(-2131.773 -9558.053)" fill="#fff"/>
      <circle id="Ellipse_3107" data-name="Ellipse 3107" cx="8" cy="8" r="8" transform="translate(-2186.773 -9462.053)" fill="#fff"/>
      <ellipse id="Ellipse_3108" data-name="Ellipse 3108" cx="8" cy="8.5" rx="8" ry="8.5" transform="translate(-2186.773 -9423.053)" fill="#fff"/>
      <circle id="Ellipse_3109" data-name="Ellipse 3109" cx="8" cy="8" r="8" transform="translate(-1905.773 -9393.053)" fill="#fff"/>
      <circle id="Ellipse_3110" data-name="Ellipse 3110" cx="8" cy="8" r="8" transform="translate(-1905.773 -9363.053)" fill="#fff"/>
      <ellipse id="Ellipse_3111" data-name="Ellipse 3111" cx="8" cy="8.5" rx="8" ry="8.5" transform="translate(-1905.773 -9334.053)" fill="#fff"/>
      <circle id="Ellipse_3112" data-name="Ellipse 3112" cx="8" cy="8" r="8" transform="translate(-1905.773 -9305.053)" fill="#fff"/>
      <ellipse id="Ellipse_3113" data-name="Ellipse 3113" cx="8.5" cy="8" rx="8.5" ry="8" transform="translate(-2301.773 -9501.053)" fill="#fff"/>
      <ellipse id="Ellipse_3114" data-name="Ellipse 3114" cx="8.5" cy="8" rx="8.5" ry="8" transform="translate(-2301.773 -9462.053)" fill="#fff"/>
      <circle id="Ellipse_3115" data-name="Ellipse 3115" cx="8.5" cy="8.5" r="8.5" transform="translate(-2301.773 -9423.053)" fill="#fff"/>
      <circle id="Ellipse_3116" data-name="Ellipse 3116" cx="8" cy="8" r="8" transform="translate(-2020.773 -9393.053)" fill="#fff"/>
      <circle id="Ellipse_3117" data-name="Ellipse 3117" cx="8" cy="8" r="8" transform="translate(-2020.773 -9363.053)" fill="#fff"/>
      <ellipse id="Ellipse_3118" data-name="Ellipse 3118" cx="8" cy="8.5" rx="8" ry="8.5" transform="translate(-2020.773 -9334.053)" fill="#fff"/>
      <circle id="Ellipse_3119" data-name="Ellipse 3119" cx="8" cy="8" r="8" transform="translate(-2020.773 -9305.053)" fill="#fff"/>
      <circle id="Ellipse_3120" data-name="Ellipse 3120" cx="8" cy="8" r="8" transform="translate(-2056.773 -9393.053)" fill="#fff"/>
      <circle id="Ellipse_3121" data-name="Ellipse 3121" cx="8" cy="8" r="8" transform="translate(-2056.773 -9363.053)" fill="#fff"/>
      <ellipse id="Ellipse_3122" data-name="Ellipse 3122" cx="8" cy="8.5" rx="8" ry="8.5" transform="translate(-2056.773 -9334.053)" fill="#fff"/>
      <circle id="Ellipse_3123" data-name="Ellipse 3123" cx="8" cy="8" r="8" transform="translate(-2056.773 -9305.053)" fill="#fff"/>
      <circle id="Ellipse_3124" data-name="Ellipse 3124" cx="12" cy="12" r="12" transform="translate(-1959.773 -9506.053)" fill="#fff"/>
      <ellipse id="Ellipse_3125" data-name="Ellipse 3125" cx="12" cy="12.5" rx="12" ry="12.5" transform="translate(-1959.773 -9469.053)" fill="#fff"/>
      <ellipse id="Ellipse_3126" data-name="Ellipse 3126" cx="12" cy="12.5" rx="12" ry="12.5" transform="translate(-1959.773 -9431.053)" fill="#fff"/>
      <ellipse id="Ellipse_3127" data-name="Ellipse 3127" cx="12.5" cy="12" rx="12.5" ry="12" transform="translate(-2236.773 -9397.053)" fill="#fff"/>
      <ellipse id="Ellipse_3128" data-name="Ellipse 3128" cx="12.5" cy="12" rx="12.5" ry="12" transform="translate(-2236.773 -9363.053)" fill="#fff"/>
      <circle id="Ellipse_3129" data-name="Ellipse 3129" cx="12.5" cy="12.5" r="12.5" transform="translate(-2236.773 -9330.053)" fill="#fff"/>
      <ellipse id="Ellipse_3130" data-name="Ellipse 3130" cx="12.5" cy="12" rx="12.5" ry="12" transform="translate(-1892.773 -9506.053)" fill="#fff"/>
      <circle id="Ellipse_3131" data-name="Ellipse 3131" cx="12.5" cy="12.5" r="12.5" transform="translate(-1892.773 -9469.053)" fill="#fff"/>
      <circle id="Ellipse_3132" data-name="Ellipse 3132" cx="12.5" cy="12.5" r="12.5" transform="translate(-1892.773 -9431.053)" fill="#fff"/>
      <circle id="Ellipse_3133" data-name="Ellipse 3133" cx="12" cy="12" r="12" transform="translate(-2168.773 -9397.053)" fill="#fff"/>
      <circle id="Ellipse_3134" data-name="Ellipse 3134" cx="12" cy="12" r="12" transform="translate(-2168.773 -9363.053)" fill="#fff"/>
      <ellipse id="Ellipse_3135" data-name="Ellipse 3135" cx="12" cy="12.5" rx="12" ry="12.5" transform="translate(-2168.773 -9330.053)" fill="#fff"/>
      <ellipse id="Ellipse_3136" data-name="Ellipse 3136" cx="12.5" cy="12" rx="12.5" ry="12" transform="translate(-2027.773 -9506.053)" fill="#fff"/>
      <circle id="Ellipse_3137" data-name="Ellipse 3137" cx="12.5" cy="12.5" r="12.5" transform="translate(-2027.773 -9469.053)" fill="#fff"/>
      <circle id="Ellipse_3138" data-name="Ellipse 3138" cx="12.5" cy="12.5" r="12.5" transform="translate(-2027.773 -9431.053)" fill="#fff"/>
      <circle id="Ellipse_3139" data-name="Ellipse 3139" cx="12" cy="12" r="12" transform="translate(-2303.773 -9397.053)" fill="#fff"/>
      <circle id="Ellipse_3140" data-name="Ellipse 3140" cx="12" cy="12" r="12" transform="translate(-2303.773 -9363.053)" fill="#fff"/>
      <ellipse id="Ellipse_3141" data-name="Ellipse 3141" cx="12" cy="12.5" rx="12" ry="12.5" transform="translate(-2303.773 -9330.053)" fill="#fff"/>
      <circle id="Ellipse_3142" data-name="Ellipse 3142" cx="12" cy="12" r="12" transform="translate(-1858.773 -9506.053)" fill="#fff"/>
      <ellipse id="Ellipse_3143" data-name="Ellipse 3143" cx="12" cy="12.5" rx="12" ry="12.5" transform="translate(-1858.773 -9469.053)" fill="#fff"/>
      <ellipse id="Ellipse_3144" data-name="Ellipse 3144" cx="12" cy="12.5" rx="12" ry="12.5" transform="translate(-1858.773 -9431.053)" fill="#fff"/>
      <ellipse id="Ellipse_3145" data-name="Ellipse 3145" cx="12.5" cy="12" rx="12.5" ry="12" transform="translate(-2135.773 -9397.053)" fill="#fff"/>
      <ellipse id="Ellipse_3146" data-name="Ellipse 3146" cx="12.5" cy="12" rx="12.5" ry="12" transform="translate(-2135.773 -9363.053)" fill="#fff"/>
      <circle id="Ellipse_3147" data-name="Ellipse 3147" cx="12.5" cy="12.5" r="12.5" transform="translate(-2135.773 -9330.053)" fill="#fff"/>
      <ellipse id="Ellipse_3148" data-name="Ellipse 3148" cx="12.5" cy="12" rx="12.5" ry="12" transform="translate(-1993.773 -9506.053)" fill="#fff"/>
      <circle id="Ellipse_3149" data-name="Ellipse 3149" cx="12.5" cy="12.5" r="12.5" transform="translate(-1993.773 -9469.053)" fill="#fff"/>
      <circle id="Ellipse_3150" data-name="Ellipse 3150" cx="12.5" cy="12.5" r="12.5" transform="translate(-1993.773 -9431.053)" fill="#fff"/>
      <circle id="Ellipse_3151" data-name="Ellipse 3151" cx="12" cy="12" r="12" transform="translate(-2269.773 -9397.053)" fill="#fff"/>
      <circle id="Ellipse_3152" data-name="Ellipse 3152" cx="12" cy="12" r="12" transform="translate(-2269.773 -9363.053)" fill="#fff"/>
      <ellipse id="Ellipse_3153" data-name="Ellipse 3153" cx="12" cy="12.5" rx="12" ry="12.5" transform="translate(-2269.773 -9330.053)" fill="#fff"/>
      <circle id="Ellipse_3154" data-name="Ellipse 3154" cx="12" cy="12" r="12" transform="translate(-1925.773 -9506.053)" fill="#fff"/>
      <ellipse id="Ellipse_3155" data-name="Ellipse 3155" cx="12" cy="12.5" rx="12" ry="12.5" transform="translate(-1925.773 -9469.053)" fill="#fff"/>
      <ellipse id="Ellipse_3156" data-name="Ellipse 3156" cx="12" cy="12.5" rx="12" ry="12.5" transform="translate(-1925.773 -9431.053)" fill="#fff"/>
      <circle id="Ellipse_3157" data-name="Ellipse 3157" cx="12" cy="12" r="12" transform="translate(-2202.773 -9397.053)" fill="#fff"/>
      <circle id="Ellipse_3158" data-name="Ellipse 3158" cx="12" cy="12" r="12" transform="translate(-2202.773 -9363.053)" fill="#fff"/>
      <ellipse id="Ellipse_3159" data-name="Ellipse 3159" cx="12" cy="12.5" rx="12" ry="12.5" transform="translate(-2202.773 -9330.053)" fill="#fff"/>
      <circle id="Ellipse_3160" data-name="Ellipse 3160" cx="12" cy="12" r="12" transform="translate(-2060.773 -9506.053)" fill="#fff"/>
      <ellipse id="Ellipse_3161" data-name="Ellipse 3161" cx="12" cy="12.5" rx="12" ry="12.5" transform="translate(-2060.773 -9469.053)" fill="#fff"/>
      <ellipse id="Ellipse_3162" data-name="Ellipse 3162" cx="12" cy="12.5" rx="12" ry="12.5" transform="translate(-2060.773 -9431.053)" fill="#fff"/>
    </g>
  </g>
  <g id="Mask_Group_2221" data-name="Mask Group 2221" transform="translate(-859 -2205.68)" opacity="0.14" clip-path="url(#clip-path-2)">
    <g id="Group_174282" data-name="Group 174282" transform="translate(3196.772 12007.053)" opacity="0.31">
      <circle id="Ellipse_3379" data-name="Ellipse 3379" cx="12" cy="12" r="12" transform="translate(-1824.773 -9506.053)" fill="#fff"/>
      <ellipse id="Ellipse_3380" data-name="Ellipse 3380" cx="12" cy="12.5" rx="12" ry="12.5" transform="translate(-1824.773 -9469.053)" fill="#fff"/>
      <ellipse id="Ellipse_3381" data-name="Ellipse 3381" cx="12" cy="12.5" rx="12" ry="12.5" transform="translate(-1824.773 -9431.053)" fill="#fff"/>
      <ellipse id="Ellipse_3382" data-name="Ellipse 3382" cx="12.5" cy="12" rx="12.5" ry="12" transform="translate(-2101.773 -9397.053)" fill="#fff"/>
      <ellipse id="Ellipse_3383" data-name="Ellipse 3383" cx="12.5" cy="12" rx="12.5" ry="12" transform="translate(-2101.773 -9363.053)" fill="#fff"/>
      <circle id="Ellipse_3384" data-name="Ellipse 3384" cx="12.5" cy="12.5" r="12.5" transform="translate(-2101.773 -9330.053)" fill="#fff"/>
      <circle id="Ellipse_3385" data-name="Ellipse 3385" cx="8" cy="8" r="8" transform="translate(-2097.773 -9501.053)" fill="#fff"/>
      <circle id="Ellipse_3386" data-name="Ellipse 3386" cx="8" cy="8" r="8" transform="translate(-2097.773 -9462.053)" fill="#fff"/>
      <ellipse id="Ellipse_3387" data-name="Ellipse 3387" cx="8" cy="8.5" rx="8" ry="8.5" transform="translate(-2097.773 -9423.053)" fill="#fff"/>
      <circle id="Ellipse_3388" data-name="Ellipse 3388" cx="8" cy="8" r="8" transform="translate(-1816.773 -9393.053)" fill="#fff"/>
      <circle id="Ellipse_3389" data-name="Ellipse 3389" cx="8" cy="8" r="8" transform="translate(-1816.773 -9363.053)" fill="#fff"/>
      <ellipse id="Ellipse_3390" data-name="Ellipse 3390" cx="8" cy="8.5" rx="8" ry="8.5" transform="translate(-1816.773 -9334.053)" fill="#fff"/>
      <circle id="Ellipse_3391" data-name="Ellipse 3391" cx="8" cy="8" r="8" transform="translate(-1816.773 -9305.053)" fill="#fff"/>
      <circle id="Ellipse_3392" data-name="Ellipse 3392" cx="8" cy="8" r="8" transform="translate(-2211.773 -9501.053)" fill="#fff"/>
      <circle id="Ellipse_3393" data-name="Ellipse 3393" cx="8" cy="8" r="8" transform="translate(-2179.773 -9527.053)" fill="#fff"/>
      <circle id="Ellipse_3394" data-name="Ellipse 3394" cx="8" cy="8" r="8" transform="translate(-2156.773 -9558.053)" fill="#fff"/>
      <circle id="Ellipse_3395" data-name="Ellipse 3395" cx="8" cy="8" r="8" transform="translate(-2211.773 -9462.053)" fill="#fff"/>
      <ellipse id="Ellipse_3396" data-name="Ellipse 3396" cx="8" cy="8.5" rx="8" ry="8.5" transform="translate(-2211.773 -9423.053)" fill="#fff"/>
      <circle id="Ellipse_3397" data-name="Ellipse 3397" cx="8" cy="8" r="8" transform="translate(-1931.773 -9393.053)" fill="#fff"/>
      <circle id="Ellipse_3398" data-name="Ellipse 3398" cx="8" cy="8" r="8" transform="translate(-1931.773 -9363.053)" fill="#fff"/>
      <ellipse id="Ellipse_3399" data-name="Ellipse 3399" cx="8" cy="8.5" rx="8" ry="8.5" transform="translate(-1931.773 -9334.053)" fill="#fff"/>
      <circle id="Ellipse_3400" data-name="Ellipse 3400" cx="8" cy="8" r="8" transform="translate(-1931.773 -9305.053)" fill="#fff"/>
      <circle id="Ellipse_3401" data-name="Ellipse 3401" cx="8" cy="8" r="8" transform="translate(-2156.773 -9501.053)" fill="#fff"/>
      <circle id="Ellipse_3402" data-name="Ellipse 3402" cx="8" cy="8" r="8" transform="translate(-2156.773 -9462.053)" fill="#fff"/>
      <ellipse id="Ellipse_3403" data-name="Ellipse 3403" cx="8" cy="8.5" rx="8" ry="8.5" transform="translate(-2156.773 -9423.053)" fill="#fff"/>
      <circle id="Ellipse_3404" data-name="Ellipse 3404" cx="8" cy="8" r="8" transform="translate(-1875.773 -9393.053)" fill="#fff"/>
      <circle id="Ellipse_3405" data-name="Ellipse 3405" cx="8" cy="8" r="8" transform="translate(-1875.773 -9363.053)" fill="#fff"/>
      <ellipse id="Ellipse_3406" data-name="Ellipse 3406" cx="8" cy="8.5" rx="8" ry="8.5" transform="translate(-1875.773 -9334.053)" fill="#fff"/>
      <circle id="Ellipse_3407" data-name="Ellipse 3407" cx="8" cy="8" r="8" transform="translate(-1875.773 -9305.053)" fill="#fff"/>
      <circle id="Ellipse_3408" data-name="Ellipse 3408" cx="8" cy="8" r="8" transform="translate(-2271.773 -9501.053)" fill="#fff"/>
      <circle id="Ellipse_3409" data-name="Ellipse 3409" cx="8" cy="8" r="8" transform="translate(-2271.773 -9462.053)" fill="#fff"/>
      <ellipse id="Ellipse_3410" data-name="Ellipse 3410" cx="8" cy="8.5" rx="8" ry="8.5" transform="translate(-2271.773 -9423.053)" fill="#fff"/>
      <circle id="Ellipse_3411" data-name="Ellipse 3411" cx="8" cy="8" r="8" transform="translate(-1990.773 -9393.053)" fill="#fff"/>
      <circle id="Ellipse_3412" data-name="Ellipse 3412" cx="8" cy="8" r="8" transform="translate(-1990.773 -9363.053)" fill="#fff"/>
      <ellipse id="Ellipse_3413" data-name="Ellipse 3413" cx="8" cy="8.5" rx="8" ry="8.5" transform="translate(-1990.773 -9334.053)" fill="#fff"/>
      <circle id="Ellipse_3414" data-name="Ellipse 3414" cx="8" cy="8" r="8" transform="translate(-1990.773 -9305.053)" fill="#fff"/>
      <circle id="Ellipse_3415" data-name="Ellipse 3415" cx="8" cy="8" r="8" transform="translate(-2126.773 -9501.053)" fill="#fff"/>
      <circle id="Ellipse_3416" data-name="Ellipse 3416" cx="8" cy="8" r="8" transform="translate(-2126.773 -9462.053)" fill="#fff"/>
      <ellipse id="Ellipse_3417" data-name="Ellipse 3417" cx="8" cy="8.5" rx="8" ry="8.5" transform="translate(-2126.773 -9423.053)" fill="#fff"/>
      <ellipse id="Ellipse_3418" data-name="Ellipse 3418" cx="8.5" cy="8" rx="8.5" ry="8" transform="translate(-1846.773 -9393.053)" fill="#fff"/>
      <ellipse id="Ellipse_3419" data-name="Ellipse 3419" cx="8.5" cy="8" rx="8.5" ry="8" transform="translate(-1846.773 -9363.053)" fill="#fff"/>
      <circle id="Ellipse_3420" data-name="Ellipse 3420" cx="8.5" cy="8.5" r="8.5" transform="translate(-1846.773 -9334.053)" fill="#fff"/>
      <ellipse id="Ellipse_3421" data-name="Ellipse 3421" cx="8.5" cy="8" rx="8.5" ry="8" transform="translate(-1846.773 -9305.053)" fill="#fff"/>
      <circle id="Ellipse_3422" data-name="Ellipse 3422" cx="8" cy="8" r="8" transform="translate(-2241.773 -9501.053)" fill="#fff"/>
      <circle id="Ellipse_3423" data-name="Ellipse 3423" cx="8" cy="8" r="8" transform="translate(-2209.773 -9527.053)" fill="#fff"/>
      <circle id="Ellipse_3424" data-name="Ellipse 3424" cx="8" cy="8" r="8" transform="translate(-2186.773 -9558.053)" fill="#fff"/>
      <circle id="Ellipse_3425" data-name="Ellipse 3425" cx="8" cy="8" r="8" transform="translate(-2241.773 -9462.053)" fill="#fff"/>
      <ellipse id="Ellipse_3426" data-name="Ellipse 3426" cx="8" cy="8.5" rx="8" ry="8.5" transform="translate(-2241.773 -9423.053)" fill="#fff"/>
      <circle id="Ellipse_3427" data-name="Ellipse 3427" cx="8" cy="8" r="8" transform="translate(-1960.773 -9393.053)" fill="#fff"/>
      <circle id="Ellipse_3428" data-name="Ellipse 3428" cx="8" cy="8" r="8" transform="translate(-1960.773 -9363.053)" fill="#fff"/>
      <ellipse id="Ellipse_3429" data-name="Ellipse 3429" cx="8" cy="8.5" rx="8" ry="8.5" transform="translate(-1960.773 -9334.053)" fill="#fff"/>
      <circle id="Ellipse_3430" data-name="Ellipse 3430" cx="8" cy="8" r="8" transform="translate(-1960.773 -9305.053)" fill="#fff"/>
      <circle id="Ellipse_3431" data-name="Ellipse 3431" cx="8" cy="8" r="8" transform="translate(-2186.773 -9501.053)" fill="#fff"/>
      <circle id="Ellipse_3432" data-name="Ellipse 3432" cx="8" cy="8" r="8" transform="translate(-2154.773 -9527.053)" fill="#fff"/>
      <circle id="Ellipse_3433" data-name="Ellipse 3433" cx="8" cy="8" r="8" transform="translate(-2131.773 -9558.053)" fill="#fff"/>
      <circle id="Ellipse_3434" data-name="Ellipse 3434" cx="8" cy="8" r="8" transform="translate(-2186.773 -9462.053)" fill="#fff"/>
      <ellipse id="Ellipse_3435" data-name="Ellipse 3435" cx="8" cy="8.5" rx="8" ry="8.5" transform="translate(-2186.773 -9423.053)" fill="#fff"/>
      <circle id="Ellipse_3436" data-name="Ellipse 3436" cx="8" cy="8" r="8" transform="translate(-1905.773 -9393.053)" fill="#fff"/>
      <circle id="Ellipse_3437" data-name="Ellipse 3437" cx="8" cy="8" r="8" transform="translate(-1905.773 -9363.053)" fill="#fff"/>
      <ellipse id="Ellipse_3438" data-name="Ellipse 3438" cx="8" cy="8.5" rx="8" ry="8.5" transform="translate(-1905.773 -9334.053)" fill="#fff"/>
      <circle id="Ellipse_3439" data-name="Ellipse 3439" cx="8" cy="8" r="8" transform="translate(-1905.773 -9305.053)" fill="#fff"/>
      <ellipse id="Ellipse_3440" data-name="Ellipse 3440" cx="8.5" cy="8" rx="8.5" ry="8" transform="translate(-2301.773 -9501.053)" fill="#fff"/>
      <ellipse id="Ellipse_3441" data-name="Ellipse 3441" cx="8.5" cy="8" rx="8.5" ry="8" transform="translate(-2301.773 -9462.053)" fill="#fff"/>
      <circle id="Ellipse_3442" data-name="Ellipse 3442" cx="8.5" cy="8.5" r="8.5" transform="translate(-2301.773 -9423.053)" fill="#fff"/>
      <circle id="Ellipse_3443" data-name="Ellipse 3443" cx="8" cy="8" r="8" transform="translate(-2020.773 -9393.053)" fill="#fff"/>
      <circle id="Ellipse_3444" data-name="Ellipse 3444" cx="8" cy="8" r="8" transform="translate(-2020.773 -9363.053)" fill="#fff"/>
      <ellipse id="Ellipse_3445" data-name="Ellipse 3445" cx="8" cy="8.5" rx="8" ry="8.5" transform="translate(-2020.773 -9334.053)" fill="#fff"/>
      <circle id="Ellipse_3446" data-name="Ellipse 3446" cx="8" cy="8" r="8" transform="translate(-2020.773 -9305.053)" fill="#fff"/>
      <circle id="Ellipse_3447" data-name="Ellipse 3447" cx="8" cy="8" r="8" transform="translate(-2056.773 -9393.053)" fill="#fff"/>
      <circle id="Ellipse_3448" data-name="Ellipse 3448" cx="8" cy="8" r="8" transform="translate(-2056.773 -9363.053)" fill="#fff"/>
      <ellipse id="Ellipse_3449" data-name="Ellipse 3449" cx="8" cy="8.5" rx="8" ry="8.5" transform="translate(-2056.773 -9334.053)" fill="#fff"/>
      <circle id="Ellipse_3450" data-name="Ellipse 3450" cx="8" cy="8" r="8" transform="translate(-2056.773 -9305.053)" fill="#fff"/>
      <circle id="Ellipse_3451" data-name="Ellipse 3451" cx="12" cy="12" r="12" transform="translate(-1959.773 -9506.053)" fill="#fff"/>
      <ellipse id="Ellipse_3452" data-name="Ellipse 3452" cx="12" cy="12.5" rx="12" ry="12.5" transform="translate(-1959.773 -9469.053)" fill="#fff"/>
      <ellipse id="Ellipse_3453" data-name="Ellipse 3453" cx="12" cy="12.5" rx="12" ry="12.5" transform="translate(-1959.773 -9431.053)" fill="#fff"/>
      <ellipse id="Ellipse_3454" data-name="Ellipse 3454" cx="12.5" cy="12" rx="12.5" ry="12" transform="translate(-2236.773 -9397.053)" fill="#fff"/>
      <ellipse id="Ellipse_3455" data-name="Ellipse 3455" cx="12.5" cy="12" rx="12.5" ry="12" transform="translate(-2236.773 -9363.053)" fill="#fff"/>
      <circle id="Ellipse_3456" data-name="Ellipse 3456" cx="12.5" cy="12.5" r="12.5" transform="translate(-2236.773 -9330.053)" fill="#fff"/>
      <ellipse id="Ellipse_3457" data-name="Ellipse 3457" cx="12.5" cy="12" rx="12.5" ry="12" transform="translate(-1892.773 -9506.053)" fill="#fff"/>
      <circle id="Ellipse_3458" data-name="Ellipse 3458" cx="12.5" cy="12.5" r="12.5" transform="translate(-1892.773 -9469.053)" fill="#fff"/>
      <circle id="Ellipse_3459" data-name="Ellipse 3459" cx="12.5" cy="12.5" r="12.5" transform="translate(-1892.773 -9431.053)" fill="#fff"/>
      <circle id="Ellipse_3460" data-name="Ellipse 3460" cx="12" cy="12" r="12" transform="translate(-2168.773 -9397.053)" fill="#fff"/>
      <circle id="Ellipse_3461" data-name="Ellipse 3461" cx="12" cy="12" r="12" transform="translate(-2168.773 -9363.053)" fill="#fff"/>
      <ellipse id="Ellipse_3462" data-name="Ellipse 3462" cx="12" cy="12.5" rx="12" ry="12.5" transform="translate(-2168.773 -9330.053)" fill="#fff"/>
      <ellipse id="Ellipse_3463" data-name="Ellipse 3463" cx="12.5" cy="12" rx="12.5" ry="12" transform="translate(-2027.773 -9506.053)" fill="#fff"/>
      <circle id="Ellipse_3464" data-name="Ellipse 3464" cx="12.5" cy="12.5" r="12.5" transform="translate(-2027.773 -9469.053)" fill="#fff"/>
      <circle id="Ellipse_3465" data-name="Ellipse 3465" cx="12.5" cy="12.5" r="12.5" transform="translate(-2027.773 -9431.053)" fill="#fff"/>
      <circle id="Ellipse_3466" data-name="Ellipse 3466" cx="12" cy="12" r="12" transform="translate(-2303.773 -9397.053)" fill="#fff"/>
      <circle id="Ellipse_3467" data-name="Ellipse 3467" cx="12" cy="12" r="12" transform="translate(-2303.773 -9363.053)" fill="#fff"/>
      <ellipse id="Ellipse_3468" data-name="Ellipse 3468" cx="12" cy="12.5" rx="12" ry="12.5" transform="translate(-2303.773 -9330.053)" fill="#fff"/>
      <circle id="Ellipse_3469" data-name="Ellipse 3469" cx="12" cy="12" r="12" transform="translate(-1858.773 -9506.053)" fill="#fff"/>
      <ellipse id="Ellipse_3470" data-name="Ellipse 3470" cx="12" cy="12.5" rx="12" ry="12.5" transform="translate(-1858.773 -9469.053)" fill="#fff"/>
      <ellipse id="Ellipse_3471" data-name="Ellipse 3471" cx="12" cy="12.5" rx="12" ry="12.5" transform="translate(-1858.773 -9431.053)" fill="#fff"/>
      <ellipse id="Ellipse_3472" data-name="Ellipse 3472" cx="12.5" cy="12" rx="12.5" ry="12" transform="translate(-2135.773 -9397.053)" fill="#fff"/>
      <ellipse id="Ellipse_3473" data-name="Ellipse 3473" cx="12.5" cy="12" rx="12.5" ry="12" transform="translate(-2135.773 -9363.053)" fill="#fff"/>
      <circle id="Ellipse_3474" data-name="Ellipse 3474" cx="12.5" cy="12.5" r="12.5" transform="translate(-2135.773 -9330.053)" fill="#fff"/>
      <ellipse id="Ellipse_3475" data-name="Ellipse 3475" cx="12.5" cy="12" rx="12.5" ry="12" transform="translate(-1993.773 -9506.053)" fill="#fff"/>
      <circle id="Ellipse_3476" data-name="Ellipse 3476" cx="12.5" cy="12.5" r="12.5" transform="translate(-1993.773 -9469.053)" fill="#fff"/>
      <circle id="Ellipse_3477" data-name="Ellipse 3477" cx="12.5" cy="12.5" r="12.5" transform="translate(-1993.773 -9431.053)" fill="#fff"/>
      <circle id="Ellipse_3478" data-name="Ellipse 3478" cx="12" cy="12" r="12" transform="translate(-2269.773 -9397.053)" fill="#fff"/>
      <circle id="Ellipse_3479" data-name="Ellipse 3479" cx="12" cy="12" r="12" transform="translate(-2269.773 -9363.053)" fill="#fff"/>
      <ellipse id="Ellipse_3480" data-name="Ellipse 3480" cx="12" cy="12.5" rx="12" ry="12.5" transform="translate(-2269.773 -9330.053)" fill="#fff"/>
      <circle id="Ellipse_3481" data-name="Ellipse 3481" cx="12" cy="12" r="12" transform="translate(-1925.773 -9506.053)" fill="#fff"/>
      <ellipse id="Ellipse_3482" data-name="Ellipse 3482" cx="12" cy="12.5" rx="12" ry="12.5" transform="translate(-1925.773 -9469.053)" fill="#fff"/>
      <ellipse id="Ellipse_3483" data-name="Ellipse 3483" cx="12" cy="12.5" rx="12" ry="12.5" transform="translate(-1925.773 -9431.053)" fill="#fff"/>
      <circle id="Ellipse_3484" data-name="Ellipse 3484" cx="12" cy="12" r="12" transform="translate(-2202.773 -9397.053)" fill="#fff"/>
      <circle id="Ellipse_3485" data-name="Ellipse 3485" cx="12" cy="12" r="12" transform="translate(-2202.773 -9363.053)" fill="#fff"/>
      <ellipse id="Ellipse_3486" data-name="Ellipse 3486" cx="12" cy="12.5" rx="12" ry="12.5" transform="translate(-2202.773 -9330.053)" fill="#fff"/>
      <circle id="Ellipse_3487" data-name="Ellipse 3487" cx="12" cy="12" r="12" transform="translate(-2060.773 -9506.053)" fill="#fff"/>
      <ellipse id="Ellipse_3488" data-name="Ellipse 3488" cx="12" cy="12.5" rx="12" ry="12.5" transform="translate(-2060.773 -9469.053)" fill="#fff"/>
      <ellipse id="Ellipse_3489" data-name="Ellipse 3489" cx="12" cy="12.5" rx="12" ry="12.5" transform="translate(-2060.773 -9431.053)" fill="#fff"/>
    </g>
  </g>
  <g id="Mask_Group_2220" data-name="Mask Group 2220" transform="translate(-365.5 -2192.68)" opacity="0.06" clip-path="url(#clip-path-2)">
    <g id="Group_174281" data-name="Group 174281" transform="translate(3196.772 12007.053)" opacity="0.31">
      <circle id="Ellipse_3268" data-name="Ellipse 3268" cx="12" cy="12" r="12" transform="translate(-1824.773 -9506.053)" fill="#fff"/>
      <ellipse id="Ellipse_3269" data-name="Ellipse 3269" cx="12" cy="12.5" rx="12" ry="12.5" transform="translate(-1824.773 -9469.053)" fill="#fff"/>
      <ellipse id="Ellipse_3270" data-name="Ellipse 3270" cx="12" cy="12.5" rx="12" ry="12.5" transform="translate(-1824.773 -9431.053)" fill="#fff"/>
      <ellipse id="Ellipse_3271" data-name="Ellipse 3271" cx="12.5" cy="12" rx="12.5" ry="12" transform="translate(-2101.773 -9397.053)" fill="#fff"/>
      <ellipse id="Ellipse_3272" data-name="Ellipse 3272" cx="12.5" cy="12" rx="12.5" ry="12" transform="translate(-2101.773 -9363.053)" fill="#fff"/>
      <circle id="Ellipse_3273" data-name="Ellipse 3273" cx="12.5" cy="12.5" r="12.5" transform="translate(-2101.773 -9330.053)" fill="#fff"/>
      <circle id="Ellipse_3274" data-name="Ellipse 3274" cx="8" cy="8" r="8" transform="translate(-2097.773 -9501.053)" fill="#fff"/>
      <circle id="Ellipse_3275" data-name="Ellipse 3275" cx="8" cy="8" r="8" transform="translate(-2097.773 -9462.053)" fill="#fff"/>
      <ellipse id="Ellipse_3276" data-name="Ellipse 3276" cx="8" cy="8.5" rx="8" ry="8.5" transform="translate(-2097.773 -9423.053)" fill="#fff"/>
      <circle id="Ellipse_3277" data-name="Ellipse 3277" cx="8" cy="8" r="8" transform="translate(-1816.773 -9393.053)" fill="#fff"/>
      <circle id="Ellipse_3278" data-name="Ellipse 3278" cx="8" cy="8" r="8" transform="translate(-1816.773 -9363.053)" fill="#fff"/>
      <ellipse id="Ellipse_3279" data-name="Ellipse 3279" cx="8" cy="8.5" rx="8" ry="8.5" transform="translate(-1816.773 -9334.053)" fill="#fff"/>
      <circle id="Ellipse_3280" data-name="Ellipse 3280" cx="8" cy="8" r="8" transform="translate(-1816.773 -9305.053)" fill="#fff"/>
      <circle id="Ellipse_3281" data-name="Ellipse 3281" cx="8" cy="8" r="8" transform="translate(-2211.773 -9501.053)" fill="#fff"/>
      <circle id="Ellipse_3282" data-name="Ellipse 3282" cx="8" cy="8" r="8" transform="translate(-2211.773 -9462.053)" fill="#fff"/>
      <ellipse id="Ellipse_3283" data-name="Ellipse 3283" cx="8" cy="8.5" rx="8" ry="8.5" transform="translate(-2211.773 -9423.053)" fill="#fff"/>
      <circle id="Ellipse_3284" data-name="Ellipse 3284" cx="8" cy="8" r="8" transform="translate(-1931.773 -9393.053)" fill="#fff"/>
      <circle id="Ellipse_3285" data-name="Ellipse 3285" cx="8" cy="8" r="8" transform="translate(-1931.773 -9363.053)" fill="#fff"/>
      <ellipse id="Ellipse_3286" data-name="Ellipse 3286" cx="8" cy="8.5" rx="8" ry="8.5" transform="translate(-1931.773 -9334.053)" fill="#fff"/>
      <circle id="Ellipse_3287" data-name="Ellipse 3287" cx="8" cy="8" r="8" transform="translate(-1931.773 -9305.053)" fill="#fff"/>
      <circle id="Ellipse_3288" data-name="Ellipse 3288" cx="8" cy="8" r="8" transform="translate(-2156.773 -9501.053)" fill="#fff"/>
      <circle id="Ellipse_3289" data-name="Ellipse 3289" cx="8" cy="8" r="8" transform="translate(-2156.773 -9462.053)" fill="#fff"/>
      <ellipse id="Ellipse_3290" data-name="Ellipse 3290" cx="8" cy="8.5" rx="8" ry="8.5" transform="translate(-2156.773 -9423.053)" fill="#fff"/>
      <circle id="Ellipse_3291" data-name="Ellipse 3291" cx="8" cy="8" r="8" transform="translate(-1875.773 -9393.053)" fill="#fff"/>
      <circle id="Ellipse_3292" data-name="Ellipse 3292" cx="8" cy="8" r="8" transform="translate(-1875.773 -9363.053)" fill="#fff"/>
      <ellipse id="Ellipse_3293" data-name="Ellipse 3293" cx="8" cy="8.5" rx="8" ry="8.5" transform="translate(-1875.773 -9334.053)" fill="#fff"/>
      <circle id="Ellipse_3294" data-name="Ellipse 3294" cx="8" cy="8" r="8" transform="translate(-1875.773 -9305.053)" fill="#fff"/>
      <circle id="Ellipse_3295" data-name="Ellipse 3295" cx="8" cy="8" r="8" transform="translate(-2271.773 -9501.053)" fill="#fff"/>
      <circle id="Ellipse_3296" data-name="Ellipse 3296" cx="8" cy="8" r="8" transform="translate(-2271.773 -9462.053)" fill="#fff"/>
      <ellipse id="Ellipse_3297" data-name="Ellipse 3297" cx="8" cy="8.5" rx="8" ry="8.5" transform="translate(-2271.773 -9423.053)" fill="#fff"/>
      <circle id="Ellipse_3298" data-name="Ellipse 3298" cx="8" cy="8" r="8" transform="translate(-1990.773 -9393.053)" fill="#fff"/>
      <circle id="Ellipse_3299" data-name="Ellipse 3299" cx="8" cy="8" r="8" transform="translate(-1990.773 -9363.053)" fill="#fff"/>
      <ellipse id="Ellipse_3300" data-name="Ellipse 3300" cx="8" cy="8.5" rx="8" ry="8.5" transform="translate(-1990.773 -9334.053)" fill="#fff"/>
      <circle id="Ellipse_3301" data-name="Ellipse 3301" cx="8" cy="8" r="8" transform="translate(-1990.773 -9305.053)" fill="#fff"/>
      <circle id="Ellipse_3302" data-name="Ellipse 3302" cx="8" cy="8" r="8" transform="translate(-2126.773 -9501.053)" fill="#fff"/>
      <circle id="Ellipse_3303" data-name="Ellipse 3303" cx="8" cy="8" r="8" transform="translate(-2126.773 -9462.053)" fill="#fff"/>
      <ellipse id="Ellipse_3304" data-name="Ellipse 3304" cx="8" cy="8.5" rx="8" ry="8.5" transform="translate(-2126.773 -9423.053)" fill="#fff"/>
      <ellipse id="Ellipse_3305" data-name="Ellipse 3305" cx="8.5" cy="8" rx="8.5" ry="8" transform="translate(-1846.773 -9393.053)" fill="#fff"/>
      <ellipse id="Ellipse_3306" data-name="Ellipse 3306" cx="8.5" cy="8" rx="8.5" ry="8" transform="translate(-1846.773 -9363.053)" fill="#fff"/>
      <circle id="Ellipse_3307" data-name="Ellipse 3307" cx="8.5" cy="8.5" r="8.5" transform="translate(-1846.773 -9334.053)" fill="#fff"/>
      <ellipse id="Ellipse_3308" data-name="Ellipse 3308" cx="8.5" cy="8" rx="8.5" ry="8" transform="translate(-1846.773 -9305.053)" fill="#fff"/>
      <circle id="Ellipse_3309" data-name="Ellipse 3309" cx="8" cy="8" r="8" transform="translate(-2241.773 -9501.053)" fill="#fff"/>
      <circle id="Ellipse_3310" data-name="Ellipse 3310" cx="8" cy="8" r="8" transform="translate(-2241.773 -9462.053)" fill="#fff"/>
      <ellipse id="Ellipse_3311" data-name="Ellipse 3311" cx="8" cy="8.5" rx="8" ry="8.5" transform="translate(-2241.773 -9423.053)" fill="#fff"/>
      <circle id="Ellipse_3312" data-name="Ellipse 3312" cx="8" cy="8" r="8" transform="translate(-1960.773 -9393.053)" fill="#fff"/>
      <circle id="Ellipse_3313" data-name="Ellipse 3313" cx="8" cy="8" r="8" transform="translate(-1960.773 -9363.053)" fill="#fff"/>
      <ellipse id="Ellipse_3314" data-name="Ellipse 3314" cx="8" cy="8.5" rx="8" ry="8.5" transform="translate(-1960.773 -9334.053)" fill="#fff"/>
      <circle id="Ellipse_3315" data-name="Ellipse 3315" cx="8" cy="8" r="8" transform="translate(-1960.773 -9305.053)" fill="#fff"/>
      <circle id="Ellipse_3316" data-name="Ellipse 3316" cx="8" cy="8" r="8" transform="translate(-2186.773 -9501.053)" fill="#fff"/>
      <circle id="Ellipse_3317" data-name="Ellipse 3317" cx="8" cy="8" r="8" transform="translate(-2186.773 -9462.053)" fill="#fff"/>
      <ellipse id="Ellipse_3318" data-name="Ellipse 3318" cx="8" cy="8.5" rx="8" ry="8.5" transform="translate(-2186.773 -9423.053)" fill="#fff"/>
      <circle id="Ellipse_3319" data-name="Ellipse 3319" cx="8" cy="8" r="8" transform="translate(-1905.773 -9393.053)" fill="#fff"/>
      <circle id="Ellipse_3320" data-name="Ellipse 3320" cx="8" cy="8" r="8" transform="translate(-1905.773 -9363.053)" fill="#fff"/>
      <ellipse id="Ellipse_3321" data-name="Ellipse 3321" cx="8" cy="8.5" rx="8" ry="8.5" transform="translate(-1905.773 -9334.053)" fill="#fff"/>
      <circle id="Ellipse_3322" data-name="Ellipse 3322" cx="8" cy="8" r="8" transform="translate(-1905.773 -9305.053)" fill="#fff"/>
      <ellipse id="Ellipse_3323" data-name="Ellipse 3323" cx="8.5" cy="8" rx="8.5" ry="8" transform="translate(-2301.773 -9501.053)" fill="#fff"/>
      <ellipse id="Ellipse_3324" data-name="Ellipse 3324" cx="8.5" cy="8" rx="8.5" ry="8" transform="translate(-2301.773 -9462.053)" fill="#fff"/>
      <circle id="Ellipse_3325" data-name="Ellipse 3325" cx="8.5" cy="8.5" r="8.5" transform="translate(-2301.773 -9423.053)" fill="#fff"/>
      <circle id="Ellipse_3326" data-name="Ellipse 3326" cx="8" cy="8" r="8" transform="translate(-2020.773 -9393.053)" fill="#fff"/>
      <circle id="Ellipse_3327" data-name="Ellipse 3327" cx="8" cy="8" r="8" transform="translate(-2020.773 -9363.053)" fill="#fff"/>
      <ellipse id="Ellipse_3328" data-name="Ellipse 3328" cx="8" cy="8.5" rx="8" ry="8.5" transform="translate(-2020.773 -9334.053)" fill="#fff"/>
      <circle id="Ellipse_3329" data-name="Ellipse 3329" cx="8" cy="8" r="8" transform="translate(-2020.773 -9305.053)" fill="#fff"/>
      <circle id="Ellipse_3330" data-name="Ellipse 3330" cx="8" cy="8" r="8" transform="translate(-2056.773 -9393.053)" fill="#fff"/>
      <circle id="Ellipse_3331" data-name="Ellipse 3331" cx="8" cy="8" r="8" transform="translate(-2056.773 -9363.053)" fill="#fff"/>
      <ellipse id="Ellipse_3332" data-name="Ellipse 3332" cx="8" cy="8.5" rx="8" ry="8.5" transform="translate(-2056.773 -9334.053)" fill="#fff"/>
      <circle id="Ellipse_3333" data-name="Ellipse 3333" cx="8" cy="8" r="8" transform="translate(-2056.773 -9305.053)" fill="#fff"/>
      <circle id="Ellipse_3334" data-name="Ellipse 3334" cx="12" cy="12" r="12" transform="translate(-1959.773 -9506.053)" fill="#fff"/>
      <ellipse id="Ellipse_3335" data-name="Ellipse 3335" cx="12" cy="12.5" rx="12" ry="12.5" transform="translate(-1959.773 -9469.053)" fill="#fff"/>
      <ellipse id="Ellipse_3336" data-name="Ellipse 3336" cx="12" cy="12.5" rx="12" ry="12.5" transform="translate(-1959.773 -9431.053)" fill="#fff"/>
      <ellipse id="Ellipse_3337" data-name="Ellipse 3337" cx="12.5" cy="12" rx="12.5" ry="12" transform="translate(-2236.773 -9397.053)" fill="#fff"/>
      <ellipse id="Ellipse_3338" data-name="Ellipse 3338" cx="12.5" cy="12" rx="12.5" ry="12" transform="translate(-2236.773 -9363.053)" fill="#fff"/>
      <circle id="Ellipse_3339" data-name="Ellipse 3339" cx="12.5" cy="12.5" r="12.5" transform="translate(-2236.773 -9330.053)" fill="#fff"/>
      <ellipse id="Ellipse_3340" data-name="Ellipse 3340" cx="12.5" cy="12" rx="12.5" ry="12" transform="translate(-1892.773 -9506.053)" fill="#fff"/>
      <circle id="Ellipse_3341" data-name="Ellipse 3341" cx="12.5" cy="12.5" r="12.5" transform="translate(-1892.773 -9469.053)" fill="#fff"/>
      <circle id="Ellipse_3342" data-name="Ellipse 3342" cx="12.5" cy="12.5" r="12.5" transform="translate(-1892.773 -9431.053)" fill="#fff"/>
      <circle id="Ellipse_3343" data-name="Ellipse 3343" cx="12" cy="12" r="12" transform="translate(-2168.773 -9397.053)" fill="#fff"/>
      <circle id="Ellipse_3344" data-name="Ellipse 3344" cx="12" cy="12" r="12" transform="translate(-2168.773 -9363.053)" fill="#fff"/>
      <ellipse id="Ellipse_3345" data-name="Ellipse 3345" cx="12" cy="12.5" rx="12" ry="12.5" transform="translate(-2168.773 -9330.053)" fill="#fff"/>
      <ellipse id="Ellipse_3346" data-name="Ellipse 3346" cx="12.5" cy="12" rx="12.5" ry="12" transform="translate(-2027.773 -9506.053)" fill="#fff"/>
      <circle id="Ellipse_3347" data-name="Ellipse 3347" cx="12.5" cy="12.5" r="12.5" transform="translate(-2027.773 -9469.053)" fill="#fff"/>
      <circle id="Ellipse_3348" data-name="Ellipse 3348" cx="12.5" cy="12.5" r="12.5" transform="translate(-2027.773 -9431.053)" fill="#fff"/>
      <circle id="Ellipse_3349" data-name="Ellipse 3349" cx="12" cy="12" r="12" transform="translate(-2303.773 -9397.053)" fill="#fff"/>
      <circle id="Ellipse_3350" data-name="Ellipse 3350" cx="12" cy="12" r="12" transform="translate(-2303.773 -9363.053)" fill="#fff"/>
      <ellipse id="Ellipse_3351" data-name="Ellipse 3351" cx="12" cy="12.5" rx="12" ry="12.5" transform="translate(-2303.773 -9330.053)" fill="#fff"/>
      <circle id="Ellipse_3352" data-name="Ellipse 3352" cx="12" cy="12" r="12" transform="translate(-1858.773 -9506.053)" fill="#fff"/>
      <ellipse id="Ellipse_3353" data-name="Ellipse 3353" cx="12" cy="12.5" rx="12" ry="12.5" transform="translate(-1858.773 -9469.053)" fill="#fff"/>
      <ellipse id="Ellipse_3354" data-name="Ellipse 3354" cx="12" cy="12.5" rx="12" ry="12.5" transform="translate(-1858.773 -9431.053)" fill="#fff"/>
      <ellipse id="Ellipse_3355" data-name="Ellipse 3355" cx="12.5" cy="12" rx="12.5" ry="12" transform="translate(-2135.773 -9397.053)" fill="#fff"/>
      <ellipse id="Ellipse_3356" data-name="Ellipse 3356" cx="12.5" cy="12" rx="12.5" ry="12" transform="translate(-2135.773 -9363.053)" fill="#fff"/>
      <circle id="Ellipse_3357" data-name="Ellipse 3357" cx="12.5" cy="12.5" r="12.5" transform="translate(-2135.773 -9330.053)" fill="#fff"/>
      <ellipse id="Ellipse_3358" data-name="Ellipse 3358" cx="12.5" cy="12" rx="12.5" ry="12" transform="translate(-1993.773 -9506.053)" fill="#fff"/>
      <circle id="Ellipse_3359" data-name="Ellipse 3359" cx="12.5" cy="12.5" r="12.5" transform="translate(-1993.773 -9469.053)" fill="#fff"/>
      <circle id="Ellipse_3360" data-name="Ellipse 3360" cx="12.5" cy="12.5" r="12.5" transform="translate(-1993.773 -9431.053)" fill="#fff"/>
      <circle id="Ellipse_3361" data-name="Ellipse 3361" cx="12" cy="12" r="12" transform="translate(-2269.773 -9397.053)" fill="#fff"/>
      <circle id="Ellipse_3362" data-name="Ellipse 3362" cx="12" cy="12" r="12" transform="translate(-2269.773 -9363.053)" fill="#fff"/>
      <ellipse id="Ellipse_3363" data-name="Ellipse 3363" cx="12" cy="12.5" rx="12" ry="12.5" transform="translate(-2269.773 -9330.053)" fill="#fff"/>
      <circle id="Ellipse_3364" data-name="Ellipse 3364" cx="12" cy="12" r="12" transform="translate(-1925.773 -9506.053)" fill="#fff"/>
      <ellipse id="Ellipse_3365" data-name="Ellipse 3365" cx="12" cy="12.5" rx="12" ry="12.5" transform="translate(-1925.773 -9469.053)" fill="#fff"/>
      <ellipse id="Ellipse_3366" data-name="Ellipse 3366" cx="12" cy="12.5" rx="12" ry="12.5" transform="translate(-1925.773 -9431.053)" fill="#fff"/>
      <circle id="Ellipse_3367" data-name="Ellipse 3367" cx="12" cy="12" r="12" transform="translate(-2202.773 -9397.053)" fill="#fff"/>
      <circle id="Ellipse_3368" data-name="Ellipse 3368" cx="12" cy="12" r="12" transform="translate(-2202.773 -9363.053)" fill="#fff"/>
      <ellipse id="Ellipse_3369" data-name="Ellipse 3369" cx="12" cy="12.5" rx="12" ry="12.5" transform="translate(-2202.773 -9330.053)" fill="#fff"/>
      <circle id="Ellipse_3370" data-name="Ellipse 3370" cx="12" cy="12" r="12" transform="translate(-2060.773 -9506.053)" fill="#fff"/>
      <ellipse id="Ellipse_3371" data-name="Ellipse 3371" cx="12" cy="12.5" rx="12" ry="12.5" transform="translate(-2060.773 -9469.053)" fill="#fff"/>
      <ellipse id="Ellipse_3372" data-name="Ellipse 3372" cx="12" cy="12.5" rx="12" ry="12.5" transform="translate(-2060.773 -9431.053)" fill="#fff"/>
    </g>
  </g>
</svg>
