<svg xmlns="http://www.w3.org/2000/svg" width="24.56" height="26.464" viewBox="0 0 24.56 26.464">
    <g id="google_play" data-name="google play" transform="translate(-16.896)">
      <path id="Path_61126" data-name="Path 61126" d="M31.17,20.562l-13.289,12.8a2.261,2.261,0,0,1-.985-1.886V9.651a2.261,2.261,0,0,1,.985-1.886Z" transform="translate(0 -7.328)" fill="#2196f3"/>
      <path id="Path_61127" data-name="Path 61127" d="M52.329,8.764l-4.65,4.47L34.39.437a1.771,1.771,0,0,1,.156-.108,2.273,2.273,0,0,1,2.3-.036Z" transform="translate(-16.509 0)" fill="#4caf50"/>
      <path id="Path_61128" data-name="Path 61128" d="M280.622,160.075a2.3,2.3,0,0,1-1.2,2.043l-4.434,2.427-4.65-4.47,4.65-4.47,4.434,2.427A2.3,2.3,0,0,1,280.622,160.075Z" transform="translate(-239.167 -146.841)" fill="#ffc107"/>
      <path id="Path_61129" data-name="Path 61129" d="M52.329,239.435l-15.488,8.471a2.3,2.3,0,0,1-2.3-.036,1.768,1.768,0,0,1-.156-.108l13.289-12.8Z" transform="translate(-16.509 -221.731)" fill="#f44336"/>
    </g>
  </svg>
  