<svg xmlns="http://www.w3.org/2000/svg" xmlns:xlink="http://www.w3.org/1999/xlink" width="507" height="293" viewBox="0 0 507 293">
    <defs>
      <clipPath id="clip-path">
        <rect id="Rectangle_27228" data-name="Rectangle 27228" width="507" height="293" transform="translate(859 2425)" fill="#ff4604"/>
      </clipPath>
    </defs>
    <g id="Mask_Group_2217" data-name="Mask Group 2217" transform="translate(-859 -2425)" opacity="0.19" clip-path="url(#clip-path)">
      <g id="Group_174264" data-name="Group 174264" transform="translate(3196.772 12007.053)" opacity="0.31">
        <circle id="Ellipse_2268" data-name="Ellipse 2268" cx="12" cy="12" r="12" transform="translate(-1824.773 -9506.053)" fill="#ff4604"/>
        <ellipse id="Ellipse_2269" data-name="Ellipse 2269" cx="12" cy="12.5" rx="12" ry="12.5" transform="translate(-1824.773 -9469.053)" fill="#ff4604"/>
        <ellipse id="Ellipse_2270" data-name="Ellipse 2270" cx="12" cy="12.5" rx="12" ry="12.5" transform="translate(-1824.773 -9431.053)" fill="#ff4604"/>
        <ellipse id="Ellipse_2271" data-name="Ellipse 2271" cx="12.5" cy="12" rx="12.5" ry="12" transform="translate(-2101.773 -9397.053)" fill="#ff4604"/>
        <ellipse id="Ellipse_2272" data-name="Ellipse 2272" cx="12.5" cy="12" rx="12.5" ry="12" transform="translate(-2101.773 -9363.053)" fill="#ff4604"/>
        <circle id="Ellipse_2273" data-name="Ellipse 2273" cx="12.5" cy="12.5" r="12.5" transform="translate(-2101.773 -9330.053)" fill="#ff4604"/>
        <circle id="Ellipse_2274" data-name="Ellipse 2274" cx="8" cy="8" r="8" transform="translate(-2097.773 -9501.053)" fill="#ff4604"/>
        <circle id="Ellipse_2275" data-name="Ellipse 2275" cx="8" cy="8" r="8" transform="translate(-2097.773 -9462.053)" fill="#ff4604"/>
        <ellipse id="Ellipse_2276" data-name="Ellipse 2276" cx="8" cy="8.5" rx="8" ry="8.5" transform="translate(-2097.773 -9423.053)" fill="#ff4604"/>
        <circle id="Ellipse_2277" data-name="Ellipse 2277" cx="8" cy="8" r="8" transform="translate(-1816.773 -9393.053)" fill="#ff4604"/>
        <circle id="Ellipse_2278" data-name="Ellipse 2278" cx="8" cy="8" r="8" transform="translate(-1816.773 -9363.053)" fill="#ff4604"/>
        <ellipse id="Ellipse_2279" data-name="Ellipse 2279" cx="8" cy="8.5" rx="8" ry="8.5" transform="translate(-1816.773 -9334.053)" fill="#ff4604"/>
        <circle id="Ellipse_2280" data-name="Ellipse 2280" cx="8" cy="8" r="8" transform="translate(-1816.773 -9305.053)" fill="#ff4604"/>
        <circle id="Ellipse_2281" data-name="Ellipse 2281" cx="8" cy="8" r="8" transform="translate(-2211.773 -9501.053)" fill="#ff4604"/>
        <circle id="Ellipse_2282" data-name="Ellipse 2282" cx="8" cy="8" r="8" transform="translate(-2211.773 -9462.053)" fill="#ff4604"/>
        <ellipse id="Ellipse_2283" data-name="Ellipse 2283" cx="8" cy="8.5" rx="8" ry="8.5" transform="translate(-2211.773 -9423.053)" fill="#ff4604"/>
        <circle id="Ellipse_2284" data-name="Ellipse 2284" cx="8" cy="8" r="8" transform="translate(-1931.773 -9393.053)" fill="#ff4604"/>
        <circle id="Ellipse_2285" data-name="Ellipse 2285" cx="8" cy="8" r="8" transform="translate(-1931.773 -9363.053)" fill="#ff4604"/>
        <ellipse id="Ellipse_2286" data-name="Ellipse 2286" cx="8" cy="8.5" rx="8" ry="8.5" transform="translate(-1931.773 -9334.053)" fill="#ff4604"/>
        <circle id="Ellipse_2287" data-name="Ellipse 2287" cx="8" cy="8" r="8" transform="translate(-1931.773 -9305.053)" fill="#ff4604"/>
        <circle id="Ellipse_2288" data-name="Ellipse 2288" cx="8" cy="8" r="8" transform="translate(-2156.773 -9501.053)" fill="#ff4604"/>
        <circle id="Ellipse_2289" data-name="Ellipse 2289" cx="8" cy="8" r="8" transform="translate(-2156.773 -9462.053)" fill="#ff4604"/>
        <ellipse id="Ellipse_2290" data-name="Ellipse 2290" cx="8" cy="8.5" rx="8" ry="8.5" transform="translate(-2156.773 -9423.053)" fill="#ff4604"/>
        <circle id="Ellipse_2291" data-name="Ellipse 2291" cx="8" cy="8" r="8" transform="translate(-1875.773 -9393.053)" fill="#ff4604"/>
        <circle id="Ellipse_2292" data-name="Ellipse 2292" cx="8" cy="8" r="8" transform="translate(-1875.773 -9363.053)" fill="#ff4604"/>
        <ellipse id="Ellipse_2293" data-name="Ellipse 2293" cx="8" cy="8.5" rx="8" ry="8.5" transform="translate(-1875.773 -9334.053)" fill="#ff4604"/>
        <circle id="Ellipse_2294" data-name="Ellipse 2294" cx="8" cy="8" r="8" transform="translate(-1875.773 -9305.053)" fill="#ff4604"/>
        <circle id="Ellipse_2295" data-name="Ellipse 2295" cx="8" cy="8" r="8" transform="translate(-2271.773 -9501.053)" fill="#ff4604"/>
        <circle id="Ellipse_2296" data-name="Ellipse 2296" cx="8" cy="8" r="8" transform="translate(-2271.773 -9462.053)" fill="#ff4604"/>
        <ellipse id="Ellipse_2297" data-name="Ellipse 2297" cx="8" cy="8.5" rx="8" ry="8.5" transform="translate(-2271.773 -9423.053)" fill="#ff4604"/>
        <circle id="Ellipse_2298" data-name="Ellipse 2298" cx="8" cy="8" r="8" transform="translate(-1990.773 -9393.053)" fill="#ff4604"/>
        <circle id="Ellipse_2299" data-name="Ellipse 2299" cx="8" cy="8" r="8" transform="translate(-1990.773 -9363.053)" fill="#ff4604"/>
        <ellipse id="Ellipse_2300" data-name="Ellipse 2300" cx="8" cy="8.5" rx="8" ry="8.5" transform="translate(-1990.773 -9334.053)" fill="#ff4604"/>
        <circle id="Ellipse_2301" data-name="Ellipse 2301" cx="8" cy="8" r="8" transform="translate(-1990.773 -9305.053)" fill="#ff4604"/>
        <circle id="Ellipse_2302" data-name="Ellipse 2302" cx="8" cy="8" r="8" transform="translate(-2126.773 -9501.053)" fill="#ff4604"/>
        <circle id="Ellipse_2303" data-name="Ellipse 2303" cx="8" cy="8" r="8" transform="translate(-2126.773 -9462.053)" fill="#ff4604"/>
        <ellipse id="Ellipse_2304" data-name="Ellipse 2304" cx="8" cy="8.5" rx="8" ry="8.5" transform="translate(-2126.773 -9423.053)" fill="#ff4604"/>
        <ellipse id="Ellipse_2305" data-name="Ellipse 2305" cx="8.5" cy="8" rx="8.5" ry="8" transform="translate(-1846.773 -9393.053)" fill="#ff4604"/>
        <ellipse id="Ellipse_2306" data-name="Ellipse 2306" cx="8.5" cy="8" rx="8.5" ry="8" transform="translate(-1846.773 -9363.053)" fill="#ff4604"/>
        <circle id="Ellipse_2307" data-name="Ellipse 2307" cx="8.5" cy="8.5" r="8.5" transform="translate(-1846.773 -9334.053)" fill="#ff4604"/>
        <ellipse id="Ellipse_2308" data-name="Ellipse 2308" cx="8.5" cy="8" rx="8.5" ry="8" transform="translate(-1846.773 -9305.053)" fill="#ff4604"/>
        <circle id="Ellipse_2309" data-name="Ellipse 2309" cx="8" cy="8" r="8" transform="translate(-2241.773 -9501.053)" fill="#ff4604"/>
        <circle id="Ellipse_2310" data-name="Ellipse 2310" cx="8" cy="8" r="8" transform="translate(-2241.773 -9462.053)" fill="#ff4604"/>
        <ellipse id="Ellipse_2311" data-name="Ellipse 2311" cx="8" cy="8.5" rx="8" ry="8.5" transform="translate(-2241.773 -9423.053)" fill="#ff4604"/>
        <circle id="Ellipse_2312" data-name="Ellipse 2312" cx="8" cy="8" r="8" transform="translate(-1960.773 -9393.053)" fill="#ff4604"/>
        <circle id="Ellipse_2313" data-name="Ellipse 2313" cx="8" cy="8" r="8" transform="translate(-1960.773 -9363.053)" fill="#ff4604"/>
        <ellipse id="Ellipse_2314" data-name="Ellipse 2314" cx="8" cy="8.5" rx="8" ry="8.5" transform="translate(-1960.773 -9334.053)" fill="#ff4604"/>
        <circle id="Ellipse_2315" data-name="Ellipse 2315" cx="8" cy="8" r="8" transform="translate(-1960.773 -9305.053)" fill="#ff4604"/>
        <circle id="Ellipse_2316" data-name="Ellipse 2316" cx="8" cy="8" r="8" transform="translate(-2186.773 -9501.053)" fill="#ff4604"/>
        <circle id="Ellipse_2317" data-name="Ellipse 2317" cx="8" cy="8" r="8" transform="translate(-2186.773 -9462.053)" fill="#ff4604"/>
        <ellipse id="Ellipse_2318" data-name="Ellipse 2318" cx="8" cy="8.5" rx="8" ry="8.5" transform="translate(-2186.773 -9423.053)" fill="#ff4604"/>
        <circle id="Ellipse_2319" data-name="Ellipse 2319" cx="8" cy="8" r="8" transform="translate(-1905.773 -9393.053)" fill="#ff4604"/>
        <circle id="Ellipse_2320" data-name="Ellipse 2320" cx="8" cy="8" r="8" transform="translate(-1905.773 -9363.053)" fill="#ff4604"/>
        <ellipse id="Ellipse_2321" data-name="Ellipse 2321" cx="8" cy="8.5" rx="8" ry="8.5" transform="translate(-1905.773 -9334.053)" fill="#ff4604"/>
        <circle id="Ellipse_2322" data-name="Ellipse 2322" cx="8" cy="8" r="8" transform="translate(-1905.773 -9305.053)" fill="#ff4604"/>
        <ellipse id="Ellipse_2323" data-name="Ellipse 2323" cx="8.5" cy="8" rx="8.5" ry="8" transform="translate(-2301.773 -9501.053)" fill="#ff4604"/>
        <ellipse id="Ellipse_2324" data-name="Ellipse 2324" cx="8.5" cy="8" rx="8.5" ry="8" transform="translate(-2301.773 -9462.053)" fill="#ff4604"/>
        <circle id="Ellipse_2325" data-name="Ellipse 2325" cx="8.5" cy="8.5" r="8.5" transform="translate(-2301.773 -9423.053)" fill="#ff4604"/>
        <circle id="Ellipse_2326" data-name="Ellipse 2326" cx="8" cy="8" r="8" transform="translate(-2020.773 -9393.053)" fill="#ff4604"/>
        <circle id="Ellipse_2327" data-name="Ellipse 2327" cx="8" cy="8" r="8" transform="translate(-2020.773 -9363.053)" fill="#ff4604"/>
        <ellipse id="Ellipse_2328" data-name="Ellipse 2328" cx="8" cy="8.5" rx="8" ry="8.5" transform="translate(-2020.773 -9334.053)" fill="#ff4604"/>
        <circle id="Ellipse_2329" data-name="Ellipse 2329" cx="8" cy="8" r="8" transform="translate(-2020.773 -9305.053)" fill="#ff4604"/>
        <circle id="Ellipse_2330" data-name="Ellipse 2330" cx="8" cy="8" r="8" transform="translate(-2056.773 -9393.053)" fill="#ff4604"/>
        <circle id="Ellipse_2331" data-name="Ellipse 2331" cx="8" cy="8" r="8" transform="translate(-2056.773 -9363.053)" fill="#ff4604"/>
        <ellipse id="Ellipse_2332" data-name="Ellipse 2332" cx="8" cy="8.5" rx="8" ry="8.5" transform="translate(-2056.773 -9334.053)" fill="#ff4604"/>
        <circle id="Ellipse_2333" data-name="Ellipse 2333" cx="8" cy="8" r="8" transform="translate(-2056.773 -9305.053)" fill="#ff4604"/>
        <circle id="Ellipse_2334" data-name="Ellipse 2334" cx="12" cy="12" r="12" transform="translate(-1959.773 -9506.053)" fill="#ff4604"/>
        <ellipse id="Ellipse_2335" data-name="Ellipse 2335" cx="12" cy="12.5" rx="12" ry="12.5" transform="translate(-1959.773 -9469.053)" fill="#ff4604"/>
        <ellipse id="Ellipse_2336" data-name="Ellipse 2336" cx="12" cy="12.5" rx="12" ry="12.5" transform="translate(-1959.773 -9431.053)" fill="#ff4604"/>
        <ellipse id="Ellipse_2337" data-name="Ellipse 2337" cx="12.5" cy="12" rx="12.5" ry="12" transform="translate(-2236.773 -9397.053)" fill="#ff4604"/>
        <ellipse id="Ellipse_2338" data-name="Ellipse 2338" cx="12.5" cy="12" rx="12.5" ry="12" transform="translate(-2236.773 -9363.053)" fill="#ff4604"/>
        <circle id="Ellipse_2339" data-name="Ellipse 2339" cx="12.5" cy="12.5" r="12.5" transform="translate(-2236.773 -9330.053)" fill="#ff4604"/>
        <ellipse id="Ellipse_2340" data-name="Ellipse 2340" cx="12.5" cy="12" rx="12.5" ry="12" transform="translate(-1892.773 -9506.053)" fill="#ff4604"/>
        <circle id="Ellipse_2341" data-name="Ellipse 2341" cx="12.5" cy="12.5" r="12.5" transform="translate(-1892.773 -9469.053)" fill="#ff4604"/>
        <circle id="Ellipse_2342" data-name="Ellipse 2342" cx="12.5" cy="12.5" r="12.5" transform="translate(-1892.773 -9431.053)" fill="#ff4604"/>
        <circle id="Ellipse_2343" data-name="Ellipse 2343" cx="12" cy="12" r="12" transform="translate(-2168.773 -9397.053)" fill="#ff4604"/>
        <circle id="Ellipse_2344" data-name="Ellipse 2344" cx="12" cy="12" r="12" transform="translate(-2168.773 -9363.053)" fill="#ff4604"/>
        <ellipse id="Ellipse_2345" data-name="Ellipse 2345" cx="12" cy="12.5" rx="12" ry="12.5" transform="translate(-2168.773 -9330.053)" fill="#ff4604"/>
        <ellipse id="Ellipse_2346" data-name="Ellipse 2346" cx="12.5" cy="12" rx="12.5" ry="12" transform="translate(-2027.773 -9506.053)" fill="#ff4604"/>
        <circle id="Ellipse_2347" data-name="Ellipse 2347" cx="12.5" cy="12.5" r="12.5" transform="translate(-2027.773 -9469.053)" fill="#ff4604"/>
        <circle id="Ellipse_2348" data-name="Ellipse 2348" cx="12.5" cy="12.5" r="12.5" transform="translate(-2027.773 -9431.053)" fill="#ff4604"/>
        <circle id="Ellipse_2349" data-name="Ellipse 2349" cx="12" cy="12" r="12" transform="translate(-2303.773 -9397.053)" fill="#ff4604"/>
        <circle id="Ellipse_2350" data-name="Ellipse 2350" cx="12" cy="12" r="12" transform="translate(-2303.773 -9363.053)" fill="#ff4604"/>
        <ellipse id="Ellipse_2351" data-name="Ellipse 2351" cx="12" cy="12.5" rx="12" ry="12.5" transform="translate(-2303.773 -9330.053)" fill="#ff4604"/>
        <circle id="Ellipse_2352" data-name="Ellipse 2352" cx="12" cy="12" r="12" transform="translate(-1858.773 -9506.053)" fill="#ff4604"/>
        <ellipse id="Ellipse_2353" data-name="Ellipse 2353" cx="12" cy="12.5" rx="12" ry="12.5" transform="translate(-1858.773 -9469.053)" fill="#ff4604"/>
        <ellipse id="Ellipse_2354" data-name="Ellipse 2354" cx="12" cy="12.5" rx="12" ry="12.5" transform="translate(-1858.773 -9431.053)" fill="#ff4604"/>
        <ellipse id="Ellipse_2355" data-name="Ellipse 2355" cx="12.5" cy="12" rx="12.5" ry="12" transform="translate(-2135.773 -9397.053)" fill="#ff4604"/>
        <ellipse id="Ellipse_2356" data-name="Ellipse 2356" cx="12.5" cy="12" rx="12.5" ry="12" transform="translate(-2135.773 -9363.053)" fill="#ff4604"/>
        <circle id="Ellipse_2357" data-name="Ellipse 2357" cx="12.5" cy="12.5" r="12.5" transform="translate(-2135.773 -9330.053)" fill="#ff4604"/>
        <ellipse id="Ellipse_2358" data-name="Ellipse 2358" cx="12.5" cy="12" rx="12.5" ry="12" transform="translate(-1993.773 -9506.053)" fill="#ff4604"/>
        <circle id="Ellipse_2359" data-name="Ellipse 2359" cx="12.5" cy="12.5" r="12.5" transform="translate(-1993.773 -9469.053)" fill="#ff4604"/>
        <circle id="Ellipse_2360" data-name="Ellipse 2360" cx="12.5" cy="12.5" r="12.5" transform="translate(-1993.773 -9431.053)" fill="#ff4604"/>
        <circle id="Ellipse_2361" data-name="Ellipse 2361" cx="12" cy="12" r="12" transform="translate(-2269.773 -9397.053)" fill="#ff4604"/>
        <circle id="Ellipse_2362" data-name="Ellipse 2362" cx="12" cy="12" r="12" transform="translate(-2269.773 -9363.053)" fill="#ff4604"/>
        <ellipse id="Ellipse_2363" data-name="Ellipse 2363" cx="12" cy="12.5" rx="12" ry="12.5" transform="translate(-2269.773 -9330.053)" fill="#ff4604"/>
        <circle id="Ellipse_2364" data-name="Ellipse 2364" cx="12" cy="12" r="12" transform="translate(-1925.773 -9506.053)" fill="#ff4604"/>
        <ellipse id="Ellipse_2365" data-name="Ellipse 2365" cx="12" cy="12.5" rx="12" ry="12.5" transform="translate(-1925.773 -9469.053)" fill="#ff4604"/>
        <ellipse id="Ellipse_2366" data-name="Ellipse 2366" cx="12" cy="12.5" rx="12" ry="12.5" transform="translate(-1925.773 -9431.053)" fill="#ff4604"/>
        <circle id="Ellipse_2367" data-name="Ellipse 2367" cx="12" cy="12" r="12" transform="translate(-2202.773 -9397.053)" fill="#ff4604"/>
        <circle id="Ellipse_2368" data-name="Ellipse 2368" cx="12" cy="12" r="12" transform="translate(-2202.773 -9363.053)" fill="#ff4604"/>
        <ellipse id="Ellipse_2369" data-name="Ellipse 2369" cx="12" cy="12.5" rx="12" ry="12.5" transform="translate(-2202.773 -9330.053)" fill="#ff4604"/>
        <circle id="Ellipse_2370" data-name="Ellipse 2370" cx="12" cy="12" r="12" transform="translate(-2060.773 -9506.053)" fill="#ff4604"/>
        <ellipse id="Ellipse_2371" data-name="Ellipse 2371" cx="12" cy="12.5" rx="12" ry="12.5" transform="translate(-2060.773 -9469.053)" fill="#ff4604"/>
        <ellipse id="Ellipse_2372" data-name="Ellipse 2372" cx="12" cy="12.5" rx="12" ry="12.5" transform="translate(-2060.773 -9431.053)" fill="#ff4604"/>
      </g>
    </g>
  </svg>
  